<svg version="1.1" viewBox="0.0 0.0 408.0 498.0" fill="none" stroke="none" stroke-linecap="square" stroke-miterlimit="10" xmlns:xlink="http://www.w3.org/1999/xlink" xmlns="http://www.w3.org/2000/svg"><clipPath id="p.0"><path d="m0 0l408.0 0l0 498.0l-408.0 0l0 -498.0z" clip-rule="nonzero"/></clipPath><g clip-path="url(#p.0)"><path fill="#000000" fill-opacity="0.0" d="m0 0l408.0 0l0 498.0l-408.0 0z" fill-rule="evenodd"/><path fill="#000000" fill-opacity="0.0" d="m192.11285 35.417324l18.425201 0" fill-rule="evenodd"/><path stroke="#000000" stroke-width="1.0" stroke-linejoin="round" stroke-linecap="butt" d="m192.11285 35.417324l18.425201 0" fill-rule="evenodd"/><path fill="#000000" fill-opacity="0.0" d="m110.00525 16.548557l85.60629 0l0 25.19685l-85.60629 0z" fill-rule="evenodd"/><path fill="#000000" d="m130.635 36.767933q0 1.9375 -0.890625 3.125q-0.890625 1.171875 -2.3906326 1.171875q-1.59375 0 -2.46875 -1.140625l-0.078125 0.984375l-1.328125 0l0 -12.0l1.453125 0l0 4.46875q0.875 -1.078125 2.40625 -1.078125q1.5468826 0 2.4218826 1.171875q0.875 1.15625 0.875 3.171875l0 0.125zm-1.4375 -0.15625q0 -1.484375 -0.578125 -2.28125q-0.5625 -0.8125 -1.6406326 -0.8125q-1.421875 0 -2.046875 1.328125l0 3.65625q0.65625 1.328125 2.0625 1.328125q1.0468826 0 1.6250076 -0.796875q0.578125 -0.8125 0.578125 -2.421875zm6.7734375 4.453125q-1.71875 0 -2.796875 -1.125q-1.078125 -1.140625 -1.078125 -3.03125l0 -0.265625q0 -1.25 0.46875 -2.234375q0.484375 -1.0 1.34375 -1.546875q0.875 -0.5625 1.875 -0.5625q1.65625 0 2.5625 1.09375q0.921875 1.078125 0.921875 3.09375l0 0.609375l-5.734375 0q0.03125 1.25 0.734375 2.015625q0.703125 0.765625 1.78125 0.765625q0.765625 0 1.296875 -0.3125q0.53125 -0.3125 0.921875 -0.828125l0.890625 0.6875q-1.0625 1.640625 -3.1875 1.640625zm-0.1875 -7.578125q-0.875 0 -1.46875 0.640625q-0.59375 0.625 -0.734375 1.78125l4.234375 0l0 -0.109375q-0.0625 -1.109375 -0.59375 -1.703125q-0.53125 -0.609375 -1.4375 -0.609375zm5.8671875 7.421875l0 -7.34375l-1.34375 0l0 -1.109375l1.34375 0l0 -0.875q0 -1.359375 0.71875 -2.09375q0.734375 -0.75 2.0625 -0.75q0.5 0 0.984375 0.140625l-0.078125 1.171875q-0.359375 -0.078125 -0.78125 -0.078125q-0.703125 0 -1.09375 0.421875q-0.375 0.40625 -0.375 1.171875l0 0.890625l1.8125 0l0 1.109375l-1.8125 0l0 7.34375l-1.4375 0zm4.4609375 -4.3125q0 -1.234375 0.484375 -2.21875q0.484375 -1.0 1.359375 -1.53125q0.875 -0.546875 1.984375 -0.546875q1.734375 0 2.796875 1.203125q1.0625 1.1875 1.0625 3.171875l0 0.09375q0 1.234375 -0.46875 2.21875q-0.46875 0.984375 -1.359375 1.53125q-0.875 0.546875 -2.015625 0.546875q-1.71875 0 -2.78125 -1.1875q-1.0625 -1.203125 -1.0625 -3.171875l0 -0.109375zm1.453125 0.171875q0 1.40625 0.640625 2.265625q0.65625 0.84375 1.75 0.84375q1.109375 0 1.75 -0.859375q0.65625 -0.859375 0.65625 -2.421875q0 -1.390625 -0.671875 -2.25q-0.65625 -0.859375 -1.75 -0.859375q-1.0625 0 -1.71875 0.859375q-0.65625 0.84375 -0.65625 2.421875zm12.140625 -3.015625q-0.328125 -0.0625 -0.71875 -0.0625q-1.421875 0 -1.921875 1.21875l0 6.0l-1.453125 0l0 -8.453125l1.40625 0l0.03125 0.96875q0.703125 -1.125 2.015625 -1.125q0.421875 0 0.640625 0.109375l0 1.34375zm4.8359375 7.3125q-1.71875 0 -2.796875 -1.125q-1.078125 -1.140625 -1.078125 -3.03125l0 -0.265625q0 -1.25 0.46875 -2.234375q0.484375 -1.0 1.34375 -1.546875q0.875 -0.5625 1.875 -0.5625q1.65625 0 2.5625 1.09375q0.921875 1.078125 0.921875 3.09375l0 0.609375l-5.734375 0q0.03125 1.25 0.734375 2.015625q0.703125 0.765625 1.78125 0.765625q0.765625 0 1.296875 -0.3125q0.53125 -0.3125 0.921875 -0.828125l0.890625 0.6875q-1.0625 1.640625 -3.1875 1.640625zm-0.1875 -7.578125q-0.875 0 -1.46875 0.640625q-0.59375 0.625 -0.734375 1.78125l4.234375 0l0 -0.109375q-0.0625 -1.109375 -0.59375 -1.703125q-0.53125 -0.609375 -1.4375 -0.609375zm11.6640625 4.453125l-4.765625 0l-1.078125 2.96875l-1.546875 0l4.34375 -11.375l1.3125 0l4.359375 11.375l-1.546875 0l-1.078125 -2.96875zm-4.3125 -1.234375l3.859375 0l-1.9375 -5.328125l-1.921875 5.328125zm9.8125 4.203125l-1.453125 0l0 -12.0l1.453125 0l0 12.0zm3.8828125 0l-1.453125 0l0 -12.0l1.453125 0l0 12.0z" fill-rule="nonzero"/><path fill="#000000" fill-opacity="0.0" d="m192.11285 80.543304l18.425201 0" fill-rule="evenodd"/><path stroke="#000000" stroke-width="1.0" stroke-linejoin="round" stroke-linecap="butt" d="m192.11285 80.543304l18.425201 0" fill-rule="evenodd"/><path fill="#000000" fill-opacity="0.0" d="m33.249344 60.87664l161.79527 0l0 25.196854l-161.79527 0z" fill-rule="evenodd"/><path fill="#000000" d="m61.044617 84.20539q0.78125 0 1.359375 -0.46875q0.578125 -0.46875 0.640625 -1.171875l1.359375 0q-0.03125 0.734375 -0.5 1.390625q-0.453125 0.65625 -1.234375 1.046875q-0.765625 0.390625 -1.625 0.390625q-1.71875 0 -2.75 -1.15625q-1.015625 -1.15625 -1.015625 -3.15625l0 -0.234375q0 -1.234375 0.453125 -2.1875q0.453125 -0.96875 1.296875 -1.5q0.859375 -0.53125 2.015625 -0.53125q1.421875 0 2.359375 0.859375q0.9375 0.84375 1.0 2.203125l-1.359375 0q-0.0625 -0.828125 -0.625 -1.34375q-0.5625 -0.53125 -1.375 -0.53125q-1.109375 0 -1.71875 0.796875q-0.59375 0.78125 -0.59375 2.28125l0 0.28125q0 1.453125 0.59375 2.25q0.609375 0.78125 1.71875 0.78125zm4.609375 -3.28125q0 -1.234375 0.484375 -2.21875q0.484375 -1.0 1.359375 -1.53125q0.875 -0.546875 1.984375 -0.546875q1.734375 0 2.796875 1.203125q1.0625 1.1875 1.0625 3.171875l0 0.09375q0 1.234375 -0.46875 2.21875q-0.46875 0.984375 -1.359375 1.53125q-0.875 0.546875 -2.015625 0.546875q-1.71875 0 -2.78125 -1.1875q-1.0625 -1.203125 -1.0625 -3.171875l0 -0.109375zm1.453125 0.171875q0 1.40625 0.640625 2.265625q0.65625 0.84375 1.75 0.84375q1.109375 0 1.75 -0.859375q0.65625 -0.859375 0.65625 -2.421875q0 -1.390625 -0.671875 -2.25q-0.65625 -0.859375 -1.75 -0.859375q-1.0625 0 -1.71875 0.859375q-0.65625 0.84375 -0.65625 2.421875zm9.421875 -4.3125l0.046875 1.0625q0.96875 -1.21875 2.53125 -1.21875q2.671875 0 2.703125 3.015625l0 5.59375l-1.453125 0l0 -5.59375q0 -0.921875 -0.421875 -1.359375q-0.40625 -0.4375 -1.265625 -0.4375q-0.703125 0 -1.234375 0.375q-0.53125 0.375 -0.828125 0.984375l0 6.03125l-1.453125 0l0 -8.453125l1.375 0zm9.421875 -2.046875l0 2.046875l1.578125 0l0 1.109375l-1.578125 0l0 5.25q0 0.5 0.203125 0.765625q0.21875 0.25 0.71875 0.25q0.25 0 0.6875 -0.09375l0 1.171875q-0.5625 0.15625 -1.109375 0.15625q-0.96875 0 -1.46875 -0.578125q-0.484375 -0.59375 -0.484375 -1.671875l0 -5.25l-1.53125 0l0 -1.109375l1.53125 0l0 -2.046875l1.453125 0zm6.7734375 10.65625q-1.71875 0 -2.796875 -1.125q-1.078125 -1.140625 -1.078125 -3.03125l0 -0.265625q0 -1.25 0.46875 -2.234375q0.484375 -1.0 1.34375 -1.546875q0.875 -0.5625 1.875 -0.5625q1.65625 0 2.5625 1.09375q0.921875 1.078125 0.921875 3.09375l0 0.609375l-5.734375 0q0.03125 1.25 0.734375 2.015625q0.703125 0.765625 1.78125 0.765625q0.765625 0 1.296875 -0.3125q0.53125 -0.3125 0.921875 -0.828125l0.890625 0.6875q-1.0625 1.640625 -3.1875 1.640625zm-0.1875 -7.578125q-0.875 0 -1.46875 0.640625q-0.59375 0.625 -0.734375 1.78125l4.234375 0l0 -0.109375q-0.0625 -1.109375 -0.59375 -1.703125q-0.53125 -0.609375 -1.4375 -0.609375zm7.9921875 2.046875l1.875 -3.078125l1.6875 0l-2.765625 4.171875l2.84375 4.28125l-1.671875 0l-1.953125 -3.171875l-1.953125 3.171875l-1.671875 0l2.84375 -4.28125l-2.765625 -4.171875l1.671875 0l1.859375 3.078125zm7.0546875 -5.125l0 2.046875l1.578125 0l0 1.109375l-1.578125 0l0 5.25q0 0.5 0.203125 0.765625q0.21875 0.25 0.71875 0.25q0.25 0 0.6875 -0.09375l0 1.171875q-0.5625 0.15625 -1.109375 0.15625q-0.96875 0 -1.46875 -0.578125q-0.484375 -0.59375 -0.484375 -1.671875l0 -5.25l-1.53125 0l0 -1.109375l1.53125 0l0 -2.046875l1.453125 0zm11.625 5.890625l-2.671875 0l0 4.609375l-1.515625 0l0 -11.375l3.765625 0q1.921875 0 2.953125 0.875q1.046875 0.875 1.046875 2.546875q0 1.0625 -0.578125 1.859375q-0.578125 0.78125 -1.59375 1.171875l2.671875 4.828125l0 0.09375l-1.609375 0l-2.46875 -4.609375zm-2.671875 -1.21875l2.296875 0q1.125 0 1.78125 -0.578125q0.65625 -0.578125 0.65625 -1.546875q0 -1.0625 -0.625 -1.625q-0.625 -0.5625 -1.8125 -0.5625l-2.296875 0l0 4.3125zm11.6328125 5.984375q-1.71875 0 -2.796875 -1.125q-1.078125 -1.140625 -1.078125 -3.03125l0 -0.265625q0 -1.25 0.46875 -2.234375q0.484375 -1.0 1.34375 -1.546875q0.875 -0.5625 1.875 -0.5625q1.65625 0 2.5625 1.09375q0.921875 1.078125 0.921875 3.09375l0 0.609375l-5.734375 0q0.03125 1.25 0.734375 2.015625q0.703125 0.765625 1.78125 0.765625q0.765625 0 1.296875 -0.3125q0.53125 -0.3125 0.921875 -0.828125l0.890625 0.6875q-1.0625 1.640625 -3.1875 1.640625zm-0.1875 -7.578125q-0.875 0 -1.46875 0.640625q-0.59375 0.625 -0.734375 1.78125l4.234375 0l0 -0.109375q-0.0625 -1.109375 -0.59375 -1.703125q-0.53125 -0.609375 -1.4375 -0.609375zm5.8671875 7.421875l0 -7.34375l-1.34375 0l0 -1.109375l1.34375 0l0 -0.875q0 -1.359375 0.71875 -2.09375q0.734375 -0.75 2.0625 -0.75q0.5 0 0.984375 0.140625l-0.078125 1.171875q-0.359375 -0.078125 -0.78125 -0.078125q-0.703125 0 -1.09375 0.421875q-0.375 0.40625 -0.375 1.171875l0 0.890625l1.8125 0l0 1.109375l-1.8125 0l0 7.34375l-1.4375 0zm8.9296875 -7.15625q-0.328125 -0.0625 -0.71875 -0.0625q-1.421875 0 -1.921875 1.21875l0 6.0l-1.453125 0l0 -8.453125l1.40625 0l0.03125 0.96875q0.703125 -1.125 2.015625 -1.125q0.421875 0 0.640625 0.109375l0 1.34375zm4.8359375 7.3125q-1.71875 0 -2.796875 -1.125q-1.078125 -1.140625 -1.078125 -3.03125l0 -0.265625q0 -1.25 0.46875 -2.234375q0.484375 -1.0 1.34375 -1.546875q0.875 -0.5625 1.875 -0.5625q1.65625 0 2.5625 1.09375q0.921875 1.078125 0.921875 3.09375l0 0.609375l-5.734375 0q0.03125 1.25 0.734375 2.015625q0.703125 0.765625 1.78125 0.765625q0.765625 0 1.296875 -0.3125q0.53125 -0.3125 0.921875 -0.828125l0.890625 0.6875q-1.0625 1.640625 -3.1875 1.640625zm-0.1875 -7.578125q-0.875 0 -1.46875 0.640625q-0.59375 0.625 -0.734375 1.78125l4.234375 0l0 -0.109375q-0.0625 -1.109375 -0.59375 -1.703125q-0.53125 -0.609375 -1.4375 -0.609375zm10.0703125 5.171875q0 -0.578125 -0.4375 -0.90625q-0.4375 -0.328125 -1.546875 -0.5625q-1.09375 -0.234375 -1.734375 -0.5625q-0.640625 -0.328125 -0.953125 -0.78125q-0.3125 -0.453125 -0.3125 -1.078125q0 -1.03125 0.875 -1.75q0.890625 -0.71875 2.25 -0.71875q1.4375 0 2.328125 0.75q0.90625 0.734375 0.90625 1.890625l-1.453125 0q0 -0.59375 -0.515625 -1.015625q-0.5 -0.4375 -1.265625 -0.4375q-0.78125 0 -1.234375 0.34375q-0.4375 0.34375 -0.4375 0.890625q0 0.53125 0.40625 0.796875q0.421875 0.265625 1.5 0.515625q1.078125 0.234375 1.75 0.578125q0.671875 0.328125 1.0 0.796875q0.328125 0.46875 0.328125 1.15625q0 1.125 -0.90625 1.8125q-0.90625 0.6875 -2.359375 0.6875q-1.015625 0 -1.796875 -0.359375q-0.78125 -0.359375 -1.21875 -1.0q-0.4375 -0.65625 -0.4375 -1.40625l1.4375 0q0.046875 0.734375 0.578125 1.15625q0.546875 0.421875 1.4375 0.421875q0.828125 0 1.3125 -0.328125q0.5 -0.328125 0.5 -0.890625zm4.78125 -5.1875q0.953125 -1.171875 2.5 -1.171875q2.671875 0 2.703125 3.015625l0 5.59375l-1.453125 0l0 -5.59375q0 -0.921875 -0.421875 -1.359375q-0.40625 -0.4375 -1.265625 -0.4375q-0.703125 0 -1.234375 0.375q-0.53125 0.375 -0.828125 0.984375l0 6.03125l-1.453125 0l0 -12.0l1.453125 0l0 4.5625zm10.875 7.59375q-1.71875 0 -2.796875 -1.125q-1.078125 -1.140625 -1.078125 -3.03125l0 -0.265625q0 -1.25 0.46875 -2.234375q0.484375 -1.0 1.34375 -1.546875q0.875 -0.5625 1.875 -0.5625q1.65625 0 2.5625 1.09375q0.921875 1.078125 0.921875 3.09375l0 0.609375l-5.734375 0q0.03125 1.25 0.734375 2.015625q0.703125 0.765625 1.78125 0.765625q0.765625 0 1.296875 -0.3125q0.53125 -0.3125 0.921875 -0.828125l0.890625 0.6875q-1.0625 1.640625 -3.1875 1.640625zm-0.1875 -7.578125q-0.875 0 -1.46875 0.640625q-0.59375 0.625 -0.734375 1.78125l4.234375 0l0 -0.109375q-0.0625 -1.109375 -0.59375 -1.703125q-0.53125 -0.609375 -1.4375 -0.609375zm4.8046875 3.125q0 -1.953125 0.921875 -3.125q0.921875 -1.1875 2.40625 -1.1875q1.484375 0 2.359375 1.015625l0 -4.40625l1.4375 0l0 12.0l-1.328125 0l-0.0625 -0.90625q-0.875 1.0625 -2.421875 1.0625q-1.46875 0 -2.390625 -1.203125q-0.921875 -1.203125 -0.921875 -3.140625l0 -0.109375zm1.4375 0.15625q0 1.4375 0.59375 2.25q0.59375 0.8125 1.640625 0.8125q1.375 0 2.015625 -1.234375l0 -3.875q-0.65625 -1.203125 -2.0 -1.203125q-1.0625 0 -1.65625 0.828125q-0.59375 0.8125 -0.59375 2.421875z" fill-rule="nonzero"/><path fill="#000000" fill-opacity="0.0" d="m192.11285 125.66929l18.425201 0" fill-rule="evenodd"/><path stroke="#000000" stroke-width="1.0" stroke-linejoin="round" stroke-linecap="butt" d="m192.11285 125.66929l18.425201 0" fill-rule="evenodd"/><path fill="#000000" fill-opacity="0.0" d="m192.11285 170.79527l18.425201 0" fill-rule="evenodd"/><path stroke="#000000" stroke-width="1.0" stroke-linejoin="round" stroke-linecap="butt" d="m192.11285 170.79527l18.425201 0" fill-rule="evenodd"/><path fill="#000000" fill-opacity="0.0" d="m192.11285 215.92126l18.425201 0" fill-rule="evenodd"/><path stroke="#000000" stroke-width="1.0" stroke-linejoin="round" stroke-linecap="butt" d="m192.11285 215.92126l18.425201 0" fill-rule="evenodd"/><path fill="#000000" fill-opacity="0.0" d="m192.11285 261.04724l18.425201 0" fill-rule="evenodd"/><path stroke="#000000" stroke-width="1.0" stroke-linejoin="round" stroke-linecap="butt" d="m192.11285 261.04724l18.425201 0" fill-rule="evenodd"/><path fill="#000000" fill-opacity="0.0" d="m192.11285 306.17322l18.425201 0" fill-rule="evenodd"/><path stroke="#000000" stroke-width="1.0" stroke-linejoin="round" stroke-linecap="butt" d="m192.11285 306.17322l18.425201 0" fill-rule="evenodd"/><path fill="#000000" fill-opacity="0.0" d="m85.06036 105.732285l110.55118 0l0 27.590546l-110.55118 0z" fill-rule="evenodd"/><path fill="#000000" d="m113.85373 125.95166q0 1.9375 -0.890625 3.125q-0.890625 1.171875 -2.390625 1.171875q-1.59375 0 -2.46875 -1.140625l-0.078125 0.984375l-1.328125 0l0 -12.0l1.453125 0l0 4.46875q0.875 -1.078125 2.40625 -1.078125q1.546875 0 2.421875 1.171875q0.875 1.15625 0.875 3.171875l0 0.125zm-1.4375 -0.15625q0 -1.484375 -0.578125 -2.28125q-0.5625 -0.8125 -1.640625 -0.8125q-1.421875 0 -2.046875 1.328125l0 3.65625q0.65625 1.328125 2.0625 1.328125q1.046875 0 1.625 -0.796875q0.578125 -0.8125 0.578125 -2.421875zm6.7734375 4.453125q-1.71875 0 -2.796875 -1.125q-1.078125 -1.140625 -1.078125 -3.03125l0 -0.265625q0 -1.25 0.46875 -2.234375q0.484375 -1.0 1.34375 -1.546875q0.875 -0.5625 1.875 -0.5625q1.65625 0 2.5625 1.09375q0.921875 1.078125 0.921875 3.09375l0 0.609375l-5.734375 0q0.03125 1.25 0.734375 2.015625q0.703125 0.765625 1.78125 0.765625q0.765625 0 1.296875 -0.3125q0.53125 -0.3125 0.921875 -0.828125l0.890625 0.6875q-1.0625 1.640625 -3.1875 1.640625zm-0.1875 -7.578125q-0.875 0 -1.46875 0.640625q-0.59375 0.625 -0.734375 1.78125l4.234375 0l0 -0.109375q-0.0625 -1.109375 -0.59375 -1.703125q-0.53125 -0.609375 -1.4375 -0.609375zm5.8671875 7.421875l0 -7.34375l-1.34375 0l0 -1.109375l1.34375 0l0 -0.875q0 -1.359375 0.71875 -2.09375q0.734375 -0.75 2.0625 -0.75q0.5 0 0.984375 0.140625l-0.078125 1.171875q-0.359375 -0.078125 -0.78125 -0.078125q-0.703125 0 -1.09375 0.421875q-0.375 0.40625 -0.375 1.171875l0 0.890625l1.8125 0l0 1.109375l-1.8125 0l0 7.34375l-1.4375 0zm4.4609375 -4.3125q0 -1.234375 0.484375 -2.21875q0.484375 -1.0 1.359375 -1.53125q0.875 -0.546875 1.984375 -0.546875q1.734375 0 2.796875 1.203125q1.0625 1.1875 1.0625 3.171875l0 0.09375q0 1.234375 -0.46875 2.21875q-0.46875 0.984375 -1.359375 1.53125q-0.875 0.546875 -2.015625 0.546875q-1.71875 0 -2.78125 -1.1875q-1.0625 -1.203125 -1.0625 -3.171875l0 -0.109375zm1.453125 0.171875q0 1.40625 0.640625 2.265625q0.65625 0.84375 1.75 0.84375q1.109375 0 1.75 -0.859375q0.65625 -0.859375 0.65625 -2.421875q0 -1.390625 -0.671875 -2.25q-0.65625 -0.859375 -1.75 -0.859375q-1.0625 0 -1.71875 0.859375q-0.65625 0.84375 -0.65625 2.421875zm12.140625 -3.015625q-0.328125 -0.0625 -0.71875 -0.0625q-1.421875 0 -1.921875 1.21875l0 6.0l-1.453125 0l0 -8.453125l1.40625 0l0.03125 0.96875q0.703125 -1.125 2.015625 -1.125q0.421875 0 0.640625 0.109375l0 1.34375zm4.8359375 7.3125q-1.71875 0 -2.796875 -1.125q-1.078125 -1.140625 -1.078125 -3.03125l0 -0.265625q0 -1.25 0.46875 -2.234375q0.484375 -1.0 1.34375 -1.546875q0.875 -0.5625 1.875 -0.5625q1.65625 0 2.5625 1.09375q0.921875 1.078125 0.921875 3.09375l0 0.609375l-5.734375 0q0.03125 1.25 0.734375 2.015625q0.703125 0.765625 1.78125 0.765625q0.765625 0 1.296875 -0.3125q0.53125 -0.3125 0.921875 -0.828125l0.890625 0.6875q-1.0625 1.640625 -3.1875 1.640625zm-0.1875 -7.578125q-0.875 0 -1.46875 0.640625q-0.59375 0.625 -0.734375 1.78125l4.234375 0l0 -0.109375q-0.0625 -1.109375 -0.59375 -1.703125q-0.53125 -0.609375 -1.4375 -0.609375zm11.8046875 2.15625l-4.921875 0l0 4.03125l5.71875 0l0 1.234375l-7.21875 0l0 -11.375l7.140625 0l0 1.234375l-5.640625 0l0 3.65625l4.921875 0l0 1.21875zm7.65625 5.265625q-0.125 -0.25 -0.203125 -0.890625q-1.0 1.046875 -2.40625 1.046875q-1.25 0 -2.046875 -0.703125q-0.796875 -0.71875 -0.796875 -1.796875q0 -1.328125 1.0 -2.046875q1.0 -0.734375 2.828125 -0.734375l1.40625 0l0 -0.671875q0 -0.75 -0.453125 -1.203125q-0.453125 -0.453125 -1.34375 -0.453125q-0.765625 0 -1.296875 0.390625q-0.515625 0.390625 -0.515625 0.953125l-1.453125 0q0 -0.640625 0.4375 -1.21875q0.453125 -0.59375 1.21875 -0.9375q0.78125 -0.34375 1.703125 -0.34375q1.453125 0 2.28125 0.734375q0.828125 0.71875 0.859375 2.0l0 3.890625q0 1.171875 0.296875 1.859375l0 0.125l-1.515625 0zm-2.390625 -1.109375q0.671875 0 1.28125 -0.34375q0.609375 -0.359375 0.890625 -0.921875l0 -1.734375l-1.140625 0q-2.65625 0 -2.65625 1.5625q0 0.671875 0.453125 1.0625q0.453125 0.375 1.171875 0.375zm9.265625 0.078125q0.78125 0 1.359375 -0.46875q0.578125 -0.46875 0.640625 -1.171875l1.359375 0q-0.03125 0.734375 -0.5 1.390625q-0.453125 0.65625 -1.234375 1.046875q-0.765625 0.390625 -1.625 0.390625q-1.71875 0 -2.75 -1.15625q-1.015625 -1.15625 -1.015625 -3.15625l0 -0.234375q0 -1.234375 0.453125 -2.1875q0.453125 -0.96875 1.296875 -1.5q0.859375 -0.53125 2.015625 -0.53125q1.421875 0 2.359375 0.859375q0.9375 0.84375 1.0 2.203125l-1.359375 0q-0.0625 -0.828125 -0.625 -1.34375q-0.5625 -0.53125 -1.375 -0.53125q-1.109375 0 -1.71875 0.796875q-0.59375 0.78125 -0.59375 2.28125l0 0.28125q0 1.453125 0.59375 2.25q0.609375 0.78125 1.71875 0.78125zm6.4375 -6.40625q0.953125 -1.171875 2.5 -1.171875q2.671875 0 2.703125 3.015625l0 5.59375l-1.453125 0l0 -5.59375q0 -0.921875 -0.421875 -1.359375q-0.40625 -0.4375 -1.265625 -0.4375q-0.703125 0 -1.234375 0.375q-0.53125 0.375 -0.828125 0.984375l0 6.03125l-1.453125 0l0 -12.0l1.453125 0l0 4.5625z" fill-rule="nonzero"/><path fill="#000000" fill-opacity="0.0" d="m9.0 149.9029l186.04724 0l0 25.196838l-186.04724 0z" fill-rule="evenodd"/><path fill="#000000" d="m47.01599 170.12227q0 1.9375 -0.890625 3.125q-0.890625 1.171875 -2.390625 1.171875q-1.59375 0 -2.46875 -1.140625l-0.078125 0.984375l-1.328125 0l0 -12.0l1.453125 0l0 4.46875q0.875 -1.078125 2.40625 -1.078125q1.546875 0 2.421875 1.171875q0.875 1.15625 0.875 3.171875l0 0.125zm-1.4375 -0.15625q0 -1.484375 -0.578125 -2.28125q-0.5625 -0.8125 -1.640625 -0.8125q-1.421875 0 -2.046875 1.328125l0 3.65625q0.65625 1.328125 2.0625 1.328125q1.046875 0 1.625 -0.796875q0.578125 -0.8125 0.578125 -2.421875zm6.7734375 4.453125q-1.71875 0 -2.796875 -1.125q-1.078125 -1.140625 -1.078125 -3.03125l0 -0.265625q0 -1.25 0.46875 -2.234375q0.484375 -1.0 1.34375 -1.546875q0.875 -0.5625 1.875 -0.5625q1.65625 0 2.5625 1.09375q0.921875 1.078125 0.921875 3.09375l0 0.609375l-5.734375 0q0.03125 1.25 0.734375 2.015625q0.703125 0.765625 1.78125 0.765625q0.765625 0 1.296875 -0.3125q0.53125 -0.3125 0.921875 -0.828125l0.890625 0.6875q-1.0625 1.640625 -3.1875 1.640625zm-0.1875 -7.578125q-0.875 0 -1.46875 0.640625q-0.59375 0.625 -0.734375 1.78125l4.234375 0l0 -0.109375q-0.0625 -1.109375 -0.59375 -1.703125q-0.53125 -0.609375 -1.4375 -0.609375zm5.8671875 7.421875l0 -7.34375l-1.34375 0l0 -1.109375l1.34375 0l0 -0.875q0 -1.359375 0.71875 -2.09375q0.734375 -0.75 2.0625 -0.75q0.5 0 0.984375 0.140625l-0.078125 1.171875q-0.359375 -0.078125 -0.78125 -0.078125q-0.703125 0 -1.09375 0.421875q-0.375 0.40625 -0.375 1.171875l0 0.890625l1.8125 0l0 1.109375l-1.8125 0l0 7.34375l-1.4375 0zm4.4609375 -4.3125q0 -1.234375 0.484375 -2.21875q0.484375 -1.0 1.359375 -1.53125q0.875 -0.546875 1.984375 -0.546875q1.734375 0 2.796875 1.203125q1.0625 1.1875 1.0625 3.171875l0 0.09375q0 1.234375 -0.46875 2.21875q-0.46875 0.984375 -1.359375 1.53125q-0.875 0.546875 -2.015625 0.546875q-1.71875 0 -2.78125 -1.1875q-1.0625 -1.203125 -1.0625 -3.171875l0 -0.109375zm1.453125 0.171875q0 1.40625 0.640625 2.265625q0.65625 0.84375 1.75 0.84375q1.109375 0 1.75 -0.859375q0.65625 -0.859375 0.65625 -2.421875q0 -1.390625 -0.671875 -2.25q-0.65625 -0.859375 -1.75 -0.859375q-1.0625 0 -1.71875 0.859375q-0.65625 0.84375 -0.65625 2.421875zm12.140625 -3.015625q-0.328125 -0.0625 -0.71875 -0.0625q-1.421875 0 -1.921875 1.21875l0 6.0l-1.453125 0l0 -8.453125l1.40625 0l0.03125 0.96875q0.703125 -1.125 2.015625 -1.125q0.421875 0 0.640625 0.109375l0 1.34375zm4.8359375 7.3125q-1.71875 0 -2.796875 -1.125q-1.078125 -1.140625 -1.078125 -3.03125l0 -0.265625q0 -1.25 0.46875 -2.234375q0.484375 -1.0 1.34375 -1.546875q0.875 -0.5625 1.875 -0.5625q1.65625 0 2.5625 1.09375q0.921875 1.078125 0.921875 3.09375l0 0.609375l-5.734375 0q0.03125 1.25 0.734375 2.015625q0.703125 0.765625 1.78125 0.765625q0.765625 0 1.296875 -0.3125q0.53125 -0.3125 0.921875 -0.828125l0.890625 0.6875q-1.0625 1.640625 -3.1875 1.640625zm-0.1875 -7.578125q-0.875 0 -1.46875 0.640625q-0.59375 0.625 -0.734375 1.78125l4.234375 0l0 -0.109375q-0.0625 -1.109375 -0.59375 -1.703125q-0.53125 -0.609375 -1.4375 -0.609375zm13.2421875 -2.71875l-3.65625 0l0 10.140625l-1.5 0l0 -10.140625l-3.640625 0l0 -1.234375l8.796875 0l0 1.234375zm4.96875 10.296875q-1.71875 0 -2.796875 -1.125q-1.078125 -1.140625 -1.078125 -3.03125l0 -0.265625q0 -1.25 0.46875 -2.234375q0.484375 -1.0 1.34375 -1.546875q0.875 -0.5625 1.875 -0.5625q1.65625 0 2.5625 1.09375q0.921875 1.078125 0.921875 3.09375l0 0.609375l-5.734375 0q0.03125 1.25 0.734375 2.015625q0.703125 0.765625 1.78125 0.765625q0.765625 0 1.296875 -0.3125q0.53125 -0.3125 0.921875 -0.828125l0.890625 0.6875q-1.0625 1.640625 -3.1875 1.640625zm-0.1875 -7.578125q-0.875 0 -1.46875 0.640625q-0.59375 0.625 -0.734375 1.78125l4.234375 0l0 -0.109375q-0.0625 -1.109375 -0.59375 -1.703125q-0.53125 -0.609375 -1.4375 -0.609375zm10.0703125 5.171875q0 -0.578125 -0.4375 -0.90625q-0.4375 -0.328125 -1.546875 -0.5625q-1.09375 -0.234375 -1.734375 -0.5625q-0.640625 -0.328125 -0.953125 -0.78125q-0.3125 -0.453125 -0.3125 -1.078125q0 -1.03125 0.875 -1.75q0.890625 -0.71875 2.25 -0.71875q1.4375 0 2.328125 0.75q0.90625 0.734375 0.90625 1.890625l-1.453125 0q0 -0.59375 -0.515625 -1.015625q-0.5 -0.4375 -1.265625 -0.4375q-0.78125 0 -1.234375 0.34375q-0.4375 0.34375 -0.4375 0.890625q0 0.53125 0.40625 0.796875q0.421875 0.265625 1.5 0.515625q1.078125 0.234375 1.75 0.578125q0.671875 0.328125 1.0 0.796875q0.328125 0.46875 0.328125 1.15625q0 1.125 -0.90625 1.8125q-0.90625 0.6875 -2.359375 0.6875q-1.015625 0 -1.796875 -0.359375q-0.78125 -0.359375 -1.21875 -1.0q-0.4375 -0.65625 -0.4375 -1.40625l1.4375 0q0.046875 0.734375 0.578125 1.15625q0.546875 0.421875 1.4375 0.421875q0.828125 0 1.3125 -0.328125q0.5 -0.328125 0.5 -0.890625zm5.296875 -8.25l0 2.046875l1.578125 0l0 1.109375l-1.578125 0l0 5.25q0 0.5 0.203125 0.765625q0.21875 0.25 0.71875 0.25q0.25 0 0.6875 -0.09375l0 1.171875q-0.5625 0.15625 -1.109375 0.15625q-0.96875 0 -1.46875 -0.578125q-0.484375 -0.59375 -0.484375 -1.671875l0 -5.25l-1.53125 0l0 -1.109375l1.53125 0l0 -2.046875l1.453125 0zm9.9140625 5.234375l-4.921875 0l0 4.03125l5.71875 0l0 1.234375l-7.21875 0l0 -11.375l7.140625 0l0 1.234375l-5.640625 0l0 3.65625l4.921875 0l0 1.21875zm5.28125 -0.109375l1.875 -3.078125l1.6875 0l-2.765625 4.171875l2.84375 4.28125l-1.671875 0l-1.953125 -3.171875l-1.953125 3.171875l-1.671875 0l2.84375 -4.28125l-2.765625 -4.171875l1.671875 0l1.859375 3.078125zm8.6015625 5.53125q-1.71875 0 -2.796875 -1.125q-1.078125 -1.140625 -1.078125 -3.03125l0 -0.265625q0 -1.25 0.46875 -2.234375q0.484375 -1.0 1.34375 -1.546875q0.875 -0.5625 1.875 -0.5625q1.65625 0 2.5625 1.09375q0.921875 1.078125 0.921875 3.09375l0 0.609375l-5.734375 0q0.03125 1.25 0.734375 2.015625q0.703125 0.765625 1.78125 0.765625q0.765625 0 1.296875 -0.3125q0.53125 -0.3125 0.921875 -0.828125l0.890625 0.6875q-1.0625 1.640625 -3.1875 1.640625zm-0.1875 -7.578125q-0.875 0 -1.46875 0.640625q-0.59375 0.625 -0.734375 1.78125l4.234375 0l0 -0.109375q-0.0625 -1.109375 -0.59375 -1.703125q-0.53125 -0.609375 -1.4375 -0.609375zm8.5390625 6.390625q0.78125 0 1.359375 -0.46875q0.578125 -0.46875 0.640625 -1.171875l1.359375 0q-0.03125 0.734375 -0.5 1.390625q-0.453125 0.65625 -1.234375 1.046875q-0.765625 0.390625 -1.625 0.390625q-1.71875 0 -2.75 -1.15625q-1.015625 -1.15625 -1.015625 -3.15625l0 -0.234375q0 -1.234375 0.453125 -2.1875q0.453125 -0.96875 1.296875 -1.5q0.859375 -0.53125 2.015625 -0.53125q1.421875 0 2.359375 0.859375q0.9375 0.84375 1.0 2.203125l-1.359375 0q-0.0625 -0.828125 -0.625 -1.34375q-0.5625 -0.53125 -1.375 -0.53125q-1.109375 0 -1.71875 0.796875q-0.59375 0.78125 -0.59375 2.28125l0 0.28125q0 1.453125 0.59375 2.25q0.609375 0.78125 1.71875 0.78125zm10.203125 0.1875q-0.84375 1.0 -2.46875 1.0q-1.359375 0 -2.0625 -0.78125q-0.703125 -0.796875 -0.71875 -2.328125l0 -5.5l1.453125 0l0 5.453125q0 1.921875 1.5625 1.921875q1.65625 0 2.203125 -1.234375l0 -6.140625l1.4375 0l0 8.453125l-1.375 0l-0.03125 -0.84375zm5.5703125 -9.65625l0 2.046875l1.578125 0l0 1.109375l-1.578125 0l0 5.25q0 0.5 0.203125 0.765625q0.21875 0.25 0.71875 0.25q0.25 0 0.6875 -0.09375l0 1.171875q-0.5625 0.15625 -1.109375 0.15625q-0.96875 0 -1.46875 -0.578125q-0.484375 -0.59375 -0.484375 -1.671875l0 -5.25l-1.53125 0l0 -1.109375l1.53125 0l0 -2.046875l1.453125 0zm4.8359375 10.5l-1.453125 0l0 -8.453125l1.453125 0l0 8.453125zm-1.5625 -10.703125q0 -0.34375 0.203125 -0.578125q0.21875 -0.25 0.640625 -0.25q0.421875 0 0.640625 0.25q0.21875 0.234375 0.21875 0.59375q0 0.34375 -0.21875 0.578125q-0.21875 0.234375 -0.640625 0.234375q-0.421875 0 -0.640625 -0.234375q-0.203125 -0.234375 -0.203125 -0.59375zm3.4921875 6.390625q0 -1.234375 0.484375 -2.21875q0.484375 -1.0 1.359375 -1.53125q0.875 -0.546875 1.984375 -0.546875q1.734375 0 2.796875 1.203125q1.0625 1.1875 1.0625 3.171875l0 0.09375q0 1.234375 -0.46875 2.21875q-0.46875 0.984375 -1.359375 1.53125q-0.875 0.546875 -2.015625 0.546875q-1.71875 0 -2.78125 -1.1875q-1.0625 -1.203125 -1.0625 -3.171875l0 -0.109375zm1.453125 0.171875q0 1.40625 0.640625 2.265625q0.65625 0.84375 1.75 0.84375q1.109375 0 1.75 -0.859375q0.65625 -0.859375 0.65625 -2.421875q0 -1.390625 -0.671875 -2.25q-0.65625 -0.859375 -1.75 -0.859375q-1.0625 0 -1.71875 0.859375q-0.65625 0.84375 -0.65625 2.421875zm9.421875 -4.3125l0.046875 1.0625q0.96875 -1.21875 2.53125 -1.21875q2.671875 0 2.703125 3.015625l0 5.59375l-1.453125 0l0 -5.59375q0 -0.921875 -0.421875 -1.359375q-0.40625 -0.4375 -1.265625 -0.4375q-0.703125 0 -1.234375 0.375q-0.53125 0.375 -0.828125 0.984375l0 6.03125l-1.453125 0l0 -8.453125l1.375 0z" fill-rule="nonzero"/><path fill="#000000" fill-opacity="0.0" d="m35.0 194.8189l160.0315 0l0 42.204727l-160.0315 0z" fill-rule="evenodd"/><path fill="#000000" d="m57.71118 219.1789q-0.125 -0.25 -0.203125 -0.890625q-1.0 1.046875 -2.40625 1.046875q-1.25 0 -2.046875 -0.703125q-0.796875 -0.71875 -0.796875 -1.796875q0 -1.328125 1.0 -2.046875q1.0 -0.734375 2.828125 -0.734375l1.40625 0l0 -0.671875q0 -0.75 -0.453125 -1.203125q-0.453125 -0.453125 -1.34375 -0.453125q-0.765625 0 -1.296875 0.390625q-0.515625 0.390625 -0.515625 0.953125l-1.453125 0q0 -0.640625 0.4375 -1.21875q0.453125 -0.59375 1.21875 -0.9375q0.78125 -0.34375 1.703125 -0.34375q1.453125 0 2.28125 0.734375q0.828125 0.71875 0.859375 2.0l0 3.890625q0 1.171875 0.296875 1.859375l0 0.125l-1.515625 0zm-2.390625 -1.109375q0.671875 0 1.28125 -0.34375q0.609375 -0.359375 0.890625 -0.921875l0 -1.734375l-1.140625 0q-2.65625 0 -2.65625 1.5625q0 0.671875 0.453125 1.0625q0.453125 0.375 1.171875 0.375zm6.59375 1.109375l0 -7.34375l-1.34375 0l0 -1.109375l1.34375 0l0 -0.875q0 -1.359375 0.71875 -2.09375q0.734375 -0.75 2.0625 -0.75q0.5 0 0.984375 0.140625l-0.078125 1.171875q-0.359375 -0.078125 -0.78125 -0.078125q-0.703125 0 -1.09375 0.421875q-0.375 0.40625 -0.375 1.171875l0 0.890625l1.8125 0l0 1.109375l-1.8125 0l0 7.34375l-1.4375 0zm6.8046875 -10.5l0 2.046875l1.578125 0l0 1.109375l-1.578125 0l0 5.25q0 0.5 0.203125 0.765625q0.21875 0.25 0.71875 0.25q0.25 0 0.6875 -0.09375l0 1.171875q-0.5625 0.15625 -1.109375 0.15625q-0.96875 0 -1.46875 -0.578125q-0.484375 -0.59375 -0.484375 -1.671875l0 -5.25l-1.53125 0l0 -1.109375l1.53125 0l0 -2.046875l1.453125 0zm6.7734375 10.65625q-1.71875 0 -2.796875 -1.125q-1.078125 -1.140625 -1.078125 -3.03125l0 -0.265625q0 -1.25 0.46875 -2.234375q0.484375 -1.0 1.34375 -1.546875q0.875 -0.5625 1.875 -0.5625q1.65625 0 2.5625 1.09375q0.921875 1.078125 0.921875 3.09375l0 0.609375l-5.734375 0q0.03125 1.25 0.734375 2.015625q0.703125 0.765625 1.78125 0.765625q0.765625 0 1.296875 -0.3125q0.53125 -0.3125 0.921875 -0.828125l0.890625 0.6875q-1.0625 1.640625 -3.1875 1.640625zm-0.1875 -7.578125q-0.875 0 -1.46875 0.640625q-0.59375 0.625 -0.734375 1.78125l4.234375 0l0 -0.109375q-0.0625 -1.109375 -0.59375 -1.703125q-0.53125 -0.609375 -1.4375 -0.609375zm9.2421875 0.265625q-0.328125 -0.0625 -0.71875 -0.0625q-1.421875 0 -1.921875 1.21875l0 6.0l-1.453125 0l0 -8.453125l1.40625 0l0.03125 0.96875q0.703125 -1.125 2.015625 -1.125q0.421875 0 0.640625 0.109375l0 1.34375zm9.4140625 -2.984375l-3.65625 0l0 10.140625l-1.5 0l0 -10.140625l-3.640625 0l0 -1.234375l8.796875 0l0 1.234375zm4.96875 10.296875q-1.71875 0 -2.796875 -1.125q-1.078125 -1.140625 -1.078125 -3.03125l0 -0.265625q0 -1.25 0.46875 -2.234375q0.484375 -1.0 1.34375 -1.546875q0.875 -0.5625 1.875 -0.5625q1.65625 0 2.5625 1.09375q0.921875 1.078125 0.921875 3.09375l0 0.609375l-5.734375 0q0.03125 1.25 0.734375 2.015625q0.703125 0.765625 1.78125 0.765625q0.765625 0 1.296875 -0.3125q0.53125 -0.3125 0.921875 -0.828125l0.890625 0.6875q-1.0625 1.640625 -3.1875 1.640625zm-0.1875 -7.578125q-0.875 0 -1.46875 0.640625q-0.59375 0.625 -0.734375 1.78125l4.234375 0l0 -0.109375q-0.0625 -1.109375 -0.59375 -1.703125q-0.53125 -0.609375 -1.4375 -0.609375zm10.0703125 5.171875q0 -0.578125 -0.4375 -0.90625q-0.4375 -0.328125 -1.546875 -0.5625q-1.09375 -0.234375 -1.734375 -0.5625q-0.640625 -0.328125 -0.953125 -0.78125q-0.3125 -0.453125 -0.3125 -1.078125q0 -1.03125 0.875 -1.75q0.890625 -0.71875 2.25 -0.71875q1.4375 0 2.328125 0.75q0.90625 0.734375 0.90625 1.890625l-1.453125 0q0 -0.59375 -0.515625 -1.015625q-0.5 -0.4375 -1.265625 -0.4375q-0.78125 0 -1.234375 0.34375q-0.4375 0.34375 -0.4375 0.890625q0 0.53125 0.40625 0.796875q0.421875 0.265625 1.5 0.515625q1.078125 0.234375 1.75 0.578125q0.671875 0.328125 1.0 0.796875q0.328125 0.46875 0.328125 1.15625q0 1.125 -0.90625 1.8125q-0.90625 0.6875 -2.359375 0.6875q-1.015625 0 -1.796875 -0.359375q-0.78125 -0.359375 -1.21875 -1.0q-0.4375 -0.65625 -0.4375 -1.40625l1.4375 0q0.046875 0.734375 0.578125 1.15625q0.546875 0.421875 1.4375 0.421875q0.828125 0 1.3125 -0.328125q0.5 -0.328125 0.5 -0.890625zm5.296875 -8.25l0 2.046875l1.578125 0l0 1.109375l-1.578125 0l0 5.25q0 0.5 0.203125 0.765625q0.21875 0.25 0.71875 0.25q0.25 0 0.6875 -0.09375l0 1.171875q-0.5625 0.15625 -1.109375 0.15625q-0.96875 0 -1.46875 -0.578125q-0.484375 -0.59375 -0.484375 -1.671875l0 -5.25l-1.53125 0l0 -1.109375l1.53125 0l0 -2.046875l1.453125 0zm9.9140625 5.234375l-4.921875 0l0 4.03125l5.71875 0l0 1.234375l-7.21875 0l0 -11.375l7.140625 0l0 1.234375l-5.640625 0l0 3.65625l4.921875 0l0 1.21875zm5.28125 -0.109375l1.875 -3.078125l1.6875 0l-2.765625 4.171875l2.84375 4.28125l-1.671875 0l-1.953125 -3.171875l-1.953125 3.171875l-1.671875 0l2.84375 -4.28125l-2.765625 -4.171875l1.671875 0l1.859375 3.078125zm8.6015625 5.53125q-1.71875 0 -2.796875 -1.125q-1.078125 -1.140625 -1.078125 -3.03125l0 -0.265625q0 -1.25 0.46875 -2.234375q0.484375 -1.0 1.34375 -1.546875q0.875 -0.5625 1.875 -0.5625q1.65625 0 2.5625 1.09375q0.921875 1.078125 0.921875 3.09375l0 0.609375l-5.734375 0q0.03125 1.25 0.734375 2.015625q0.703125 0.765625 1.78125 0.765625q0.765625 0 1.296875 -0.3125q0.53125 -0.3125 0.921875 -0.828125l0.890625 0.6875q-1.0625 1.640625 -3.1875 1.640625zm-0.1875 -7.578125q-0.875 0 -1.46875 0.640625q-0.59375 0.625 -0.734375 1.78125l4.234375 0l0 -0.109375q-0.0625 -1.109375 -0.59375 -1.703125q-0.53125 -0.609375 -1.4375 -0.609375zm8.5390625 6.390625q0.78125 0 1.359375 -0.46875q0.578125 -0.46875 0.640625 -1.171875l1.359375 0q-0.03125 0.734375 -0.5 1.390625q-0.453125 0.65625 -1.234375 1.046875q-0.765625 0.390625 -1.625 0.390625q-1.71875 0 -2.75 -1.15625q-1.015625 -1.15625 -1.015625 -3.15625l0 -0.234375q0 -1.234375 0.453125 -2.1875q0.453125 -0.96875 1.296875 -1.5q0.859375 -0.53125 2.015625 -0.53125q1.421875 0 2.359375 0.859375q0.9375 0.84375 1.0 2.203125l-1.359375 0q-0.0625 -0.828125 -0.625 -1.34375q-0.5625 -0.53125 -1.375 -0.53125q-1.109375 0 -1.71875 0.796875q-0.59375 0.78125 -0.59375 2.28125l0 0.28125q0 1.453125 0.59375 2.25q0.609375 0.78125 1.71875 0.78125zm10.203125 0.1875q-0.84375 1.0 -2.46875 1.0q-1.359375 0 -2.0625 -0.78125q-0.703125 -0.796875 -0.71875 -2.328125l0 -5.5l1.453125 0l0 5.453125q0 1.921875 1.5625 1.921875q1.65625 0 2.203125 -1.234375l0 -6.140625l1.4375 0l0 8.453125l-1.375 0l-0.03125 -0.84375zm5.5703125 -9.65625l0 2.046875l1.578125 0l0 1.109375l-1.578125 0l0 5.25q0 0.5 0.203125 0.765625q0.21875 0.25 0.71875 0.25q0.25 0 0.6875 -0.09375l0 1.171875q-0.5625 0.15625 -1.109375 0.15625q-0.96875 0 -1.46875 -0.578125q-0.484375 -0.59375 -0.484375 -1.671875l0 -5.25l-1.53125 0l0 -1.109375l1.53125 0l0 -2.046875l1.453125 0zm4.8359375 10.5l-1.453125 0l0 -8.453125l1.453125 0l0 8.453125zm-1.5625 -10.703125q0 -0.34375 0.203125 -0.578125q0.21875 -0.25 0.640625 -0.25q0.421875 0 0.640625 0.25q0.21875 0.234375 0.21875 0.59375q0 0.34375 -0.21875 0.578125q-0.21875 0.234375 -0.640625 0.234375q-0.421875 0 -0.640625 -0.234375q-0.203125 -0.234375 -0.203125 -0.59375zm3.4921875 6.390625q0 -1.234375 0.484375 -2.21875q0.484375 -1.0 1.359375 -1.53125q0.875 -0.546875 1.984375 -0.546875q1.734375 0 2.796875 1.203125q1.0625 1.1875 1.0625 3.171875l0 0.09375q0 1.234375 -0.46875 2.21875q-0.46875 0.984375 -1.359375 1.53125q-0.875 0.546875 -2.015625 0.546875q-1.71875 0 -2.78125 -1.1875q-1.0625 -1.203125 -1.0625 -3.171875l0 -0.109375zm1.453125 0.171875q0 1.40625 0.640625 2.265625q0.65625 0.84375 1.75 0.84375q1.109375 0 1.75 -0.859375q0.65625 -0.859375 0.65625 -2.421875q0 -1.390625 -0.671875 -2.25q-0.65625 -0.859375 -1.75 -0.859375q-1.0625 0 -1.71875 0.859375q-0.65625 0.84375 -0.65625 2.421875zm9.421875 -4.3125l0.046875 1.0625q0.96875 -1.21875 2.53125 -1.21875q2.671875 0 2.703125 3.015625l0 5.59375l-1.453125 0l0 -5.59375q0 -0.921875 -0.421875 -1.359375q-0.40625 -0.4375 -1.265625 -0.4375q-0.703125 0 -1.234375 0.375q-0.53125 0.375 -0.828125 0.984375l0 6.03125l-1.453125 0l0 -8.453125l1.375 0z" fill-rule="nonzero"/><path fill="#000000" fill-opacity="0.0" d="m105.07874 241.43045l90.23621 0l0 27.590546l-90.23621 0z" fill-rule="evenodd"/><path fill="#000000" d="m124.26809 265.79044q-0.125 -0.25 -0.203125 -0.890625q-1.0 1.046875 -2.40625 1.046875q-1.25 0 -2.046875 -0.703125q-0.796875 -0.71875 -0.796875 -1.796875q0 -1.328125 1.0 -2.046875q1.0 -0.734375 2.828125 -0.734375l1.40625 0l0 -0.671875q0 -0.75 -0.453125 -1.203125q-0.453125 -0.453125 -1.34375 -0.453125q-0.765625 0 -1.296875 0.390625q-0.515625 0.390625 -0.515625 0.953125l-1.453125 0q0 -0.640625 0.4375 -1.21875q0.453125 -0.59375 1.21875 -0.9375q0.78125 -0.34375 1.703125 -0.34375q1.453125 0 2.28125 0.734375q0.828125 0.71875 0.859375 2.0l0 3.890625q0 1.171875 0.296875 1.859375l0 0.125l-1.515625 0zm-2.390625 -1.109375q0.671875 0 1.28125 -0.34375q0.609375 -0.359375 0.890625 -0.921875l0 -1.734375l-1.140625 0q-2.65625 0 -2.65625 1.5625q0 0.671875 0.453125 1.0625q0.453125 0.375 1.171875 0.375zm6.5937424 1.109375l0 -7.34375l-1.3437424 0l0 -1.109375l1.3437424 0l0 -0.875q0 -1.3593597 0.71875 -2.0937347q0.734375 -0.75 2.0625 -0.75q0.5 0 0.984375 0.140625l-0.078125 1.171875q-0.359375 -0.078125 -0.78125 -0.078125q-0.703125 0 -1.09375 0.421875q-0.375 0.40625 -0.375 1.1718597l0 0.890625l1.8125 0l0 1.109375l-1.8125 0l0 7.34375l-1.4375 0zm6.8046875 -10.499985l0 2.0468597l1.578125 0l0 1.109375l-1.578125 0l0 5.25q0 0.5 0.203125 0.765625q0.21875 0.25 0.71875 0.25q0.25 0 0.6875 -0.09375l0 1.171875q-0.5625 0.15625 -1.109375 0.15625q-0.96875 0 -1.46875 -0.578125q-0.484375 -0.59375 -0.484375 -1.671875l0 -5.25l-1.53125 0l0 -1.109375l1.53125 0l0 -2.0468597l1.453125 0zm6.7734375 10.656235q-1.71875 0 -2.796875 -1.125q-1.078125 -1.140625 -1.078125 -3.03125l0 -0.265625q0 -1.25 0.46875 -2.234375q0.484375 -1.0 1.34375 -1.546875q0.875 -0.5625 1.875 -0.5625q1.65625 0 2.5625 1.09375q0.921875 1.078125 0.921875 3.09375l0 0.609375l-5.734375 0q0.03125 1.25 0.734375 2.015625q0.703125 0.765625 1.78125 0.765625q0.765625 0 1.296875 -0.3125q0.53125 -0.3125 0.921875 -0.828125l0.890625 0.6875q-1.0625 1.640625 -3.1875 1.640625zm-0.1875 -7.578125q-0.875 0 -1.46875 0.640625q-0.59375 0.625 -0.734375 1.78125l4.234375 0l0 -0.109375q-0.0625 -1.109375 -0.59375 -1.703125q-0.53125 -0.609375 -1.4375 -0.609375zm9.2421875 0.265625q-0.328125 -0.0625 -0.71875 -0.0625q-1.421875 0 -1.921875 1.21875l0 6.0l-1.453125 0l0 -8.453125l1.40625 0l0.03125 0.96875q0.703125 -1.125 2.015625 -1.125q0.421875 0 0.640625 0.109375l0 1.34375zm7.9765625 1.890625l-4.921875 0l0 4.03125l5.71875 0l0 1.234375l-7.21875 0l0 -11.374985l7.140625 0l0 1.234375l-5.640625 0l0 3.6562347l4.921875 0l0 1.21875zm7.65625 5.265625q-0.125 -0.25 -0.203125 -0.890625q-1.0 1.046875 -2.40625 1.046875q-1.25 0 -2.046875 -0.703125q-0.796875 -0.71875 -0.796875 -1.796875q0 -1.328125 1.0 -2.046875q1.0 -0.734375 2.828125 -0.734375l1.40625 0l0 -0.671875q0 -0.75 -0.453125 -1.203125q-0.453125 -0.453125 -1.34375 -0.453125q-0.765625 0 -1.296875 0.390625q-0.515625 0.390625 -0.515625 0.953125l-1.453125 0q0 -0.640625 0.4375 -1.21875q0.453125 -0.59375 1.21875 -0.9375q0.78125 -0.34375 1.703125 -0.34375q1.453125 0 2.28125 0.734375q0.828125 0.71875 0.859375 2.0l0 3.890625q0 1.171875 0.296875 1.859375l0 0.125l-1.515625 0zm-2.390625 -1.109375q0.671875 0 1.28125 -0.34375q0.609375 -0.359375 0.890625 -0.921875l0 -1.734375l-1.140625 0q-2.65625 0 -2.65625 1.5625q0 0.671875 0.453125 1.0625q0.453125 0.375 1.171875 0.375zm9.265625 0.078125q0.78125 0 1.359375 -0.46875q0.578125 -0.46875 0.640625 -1.171875l1.359375 0q-0.03125 0.734375 -0.5 1.390625q-0.453125 0.65625 -1.234375 1.046875q-0.765625 0.390625 -1.625 0.390625q-1.71875 0 -2.75 -1.15625q-1.015625 -1.15625 -1.015625 -3.15625l0 -0.234375q0 -1.234375 0.453125 -2.1875q0.453125 -0.96875 1.296875 -1.5q0.859375 -0.53125 2.015625 -0.53125q1.421875 0 2.359375 0.859375q0.9375 0.84375 1.0 2.203125l-1.359375 0q-0.0625 -0.828125 -0.625 -1.34375q-0.5625 -0.53125 -1.375 -0.53125q-1.109375 0 -1.71875 0.796875q-0.59375 0.78125 -0.59375 2.28125l0 0.28125q0 1.453125 0.59375 2.25q0.609375 0.78125 1.71875 0.78125zm6.4375 -6.40625q0.953125 -1.171875 2.5 -1.171875q2.671875 0 2.703125 3.015625l0 5.59375l-1.453125 0l0 -5.59375q0 -0.921875 -0.421875 -1.359375q-0.40625 -0.4375 -1.265625 -0.4375q-0.703125 0 -1.234375 0.375q-0.53125 0.375 -0.828125 0.984375l0 6.03125l-1.453125 0l0 -11.999985l1.453125 0l0 4.5624847z" fill-rule="nonzero"/><path fill="#000000" fill-opacity="0.0" d="m92.44882 285.3622l102.866135 0l0 27.590546l-102.866135 0z" fill-rule="evenodd"/><path fill="#000000" d="m113.55715 305.58157q0 1.9375 -0.890625 3.125q-0.890625 1.171875 -2.390625 1.171875q-1.59375 0 -2.46875 -1.140625l-0.078125 0.984375l-1.328125 0l0 -12.0l1.453125 0l0 4.46875q0.875 -1.078125 2.40625 -1.078125q1.546875 0 2.421875 1.171875q0.875 1.15625 0.875 3.171875l0 0.125zm-1.4375 -0.15625q0 -1.484375 -0.578125 -2.28125q-0.5625 -0.8125 -1.640625 -0.8125q-1.421875 0 -2.046875 1.328125l0 3.65625q0.65625 1.328125 2.0625 1.328125q1.046875 0 1.625 -0.796875q0.578125 -0.8125 0.578125 -2.421875zm6.7734375 4.453125q-1.71875 0 -2.796875 -1.125q-1.078125 -1.140625 -1.078125 -3.03125l0 -0.265625q0 -1.25 0.46875 -2.234375q0.484375 -1.0 1.34375 -1.546875q0.875 -0.5625 1.875 -0.5625q1.65625 0 2.5625 1.09375q0.921875 1.078125 0.921875 3.09375l0 0.609375l-5.734375 0q0.03125 1.25 0.734375 2.015625q0.703125 0.765625 1.78125 0.765625q0.765625 0 1.296875 -0.3125q0.53125 -0.3125 0.921875 -0.828125l0.890625 0.6875q-1.0625 1.640625 -3.1875 1.640625zm-0.1875 -7.578125q-0.875 0 -1.46875 0.640625q-0.59375 0.625 -0.734375 1.78125l4.234375 0l0 -0.109375q-0.0625 -1.109375 -0.59375 -1.703125q-0.53125 -0.609375 -1.4375 -0.609375zm5.8671875 7.421875l0 -7.34375l-1.34375 0l0 -1.109375l1.34375 0l0 -0.875q0 -1.359375 0.71875 -2.09375q0.734375 -0.75 2.0625 -0.75q0.5 0 0.9843674 0.140625l-0.078125 1.171875q-0.35936737 -0.078125 -0.7812424 -0.078125q-0.703125 0 -1.09375 0.421875q-0.375 0.40625 -0.375 1.171875l0 0.890625l1.8125 0l0 1.109375l-1.8125 0l0 7.34375l-1.4375 0zm4.46093 -4.3125q0 -1.234375 0.484375 -2.21875q0.484375 -1.0 1.359375 -1.53125q0.875 -0.546875 1.984375 -0.546875q1.734375 0 2.796875 1.203125q1.0625 1.1875 1.0625 3.171875l0 0.09375q0 1.234375 -0.46875 2.21875q-0.46875 0.984375 -1.359375 1.53125q-0.875 0.546875 -2.015625 0.546875q-1.71875 0 -2.78125 -1.1875q-1.0625 -1.203125 -1.0625 -3.171875l0 -0.109375zm1.453125 0.171875q0 1.40625 0.640625 2.265625q0.65625 0.84375 1.75 0.84375q1.109375 0 1.75 -0.859375q0.65625 -0.859375 0.65625 -2.421875q0 -1.390625 -0.671875 -2.25q-0.65625 -0.859375 -1.75 -0.859375q-1.0625 0 -1.71875 0.859375q-0.65625 0.84375 -0.65625 2.421875zm12.140625 -3.015625q-0.328125 -0.0625 -0.71875 -0.0625q-1.421875 0 -1.921875 1.21875l0 6.0l-1.453125 0l0 -8.453125l1.40625 0l0.03125 0.96875q0.703125 -1.125 2.015625 -1.125q0.421875 0 0.640625 0.109375l0 1.34375zm4.8359375 7.3125q-1.71875 0 -2.796875 -1.125q-1.078125 -1.140625 -1.078125 -3.03125l0 -0.265625q0 -1.25 0.46875 -2.234375q0.484375 -1.0 1.34375 -1.546875q0.875 -0.5625 1.875 -0.5625q1.65625 0 2.5625 1.09375q0.921875 1.078125 0.921875 3.09375l0 0.609375l-5.734375 0q0.03125 1.25 0.734375 2.015625q0.703125 0.765625 1.78125 0.765625q0.765625 0 1.296875 -0.3125q0.53125 -0.3125 0.921875 -0.828125l0.890625 0.6875q-1.0625 1.640625 -3.1875 1.640625zm-0.1875 -7.578125q-0.875 0 -1.46875 0.640625q-0.59375 0.625 -0.734375 1.78125l4.234375 0l0 -0.109375q-0.0625 -1.109375 -0.59375 -1.703125q-0.53125 -0.609375 -1.4375 -0.609375zm11.8046875 2.15625l-4.921875 0l0 4.03125l5.71875 0l0 1.234375l-7.21875 0l0 -11.375l7.140625 0l0 1.234375l-5.640625 0l0 3.65625l4.921875 0l0 1.21875zm7.65625 5.265625q-0.125 -0.25 -0.203125 -0.890625q-1.0 1.046875 -2.40625 1.046875q-1.25 0 -2.046875 -0.703125q-0.796875 -0.71875 -0.796875 -1.796875q0 -1.328125 1.0 -2.046875q1.0 -0.734375 2.828125 -0.734375l1.40625 0l0 -0.671875q0 -0.75 -0.453125 -1.203125q-0.453125 -0.453125 -1.34375 -0.453125q-0.765625 0 -1.296875 0.390625q-0.515625 0.390625 -0.515625 0.953125l-1.453125 0q0 -0.640625 0.4375 -1.21875q0.453125 -0.59375 1.21875 -0.9375q0.78125 -0.34375 1.703125 -0.34375q1.453125 0 2.28125 0.734375q0.828125 0.71875 0.859375 2.0l0 3.890625q0 1.171875 0.296875 1.859375l0 0.125l-1.515625 0zm-2.390625 -1.109375q0.671875 0 1.28125 -0.34375q0.609375 -0.359375 0.890625 -0.921875l0 -1.734375l-1.140625 0q-2.65625 0 -2.65625 1.5625q0 0.671875 0.453125 1.0625q0.453125 0.375 1.171875 0.375zm9.265625 0.078125q0.78125 0 1.359375 -0.46875q0.578125 -0.46875 0.640625 -1.171875l1.359375 0q-0.03125 0.734375 -0.5 1.390625q-0.453125 0.65625 -1.234375 1.046875q-0.765625 0.390625 -1.625 0.390625q-1.71875 0 -2.75 -1.15625q-1.015625 -1.15625 -1.015625 -3.15625l0 -0.234375q0 -1.234375 0.453125 -2.1875q0.453125 -0.96875 1.296875 -1.5q0.859375 -0.53125 2.015625 -0.53125q1.421875 0 2.359375 0.859375q0.9375 0.84375 1.0 2.203125l-1.359375 0q-0.0625 -0.828125 -0.625 -1.34375q-0.5625 -0.53125 -1.375 -0.53125q-1.109375 0 -1.71875 0.796875q-0.59375 0.78125 -0.59375 2.28125l0 0.28125q0 1.453125 0.59375 2.25q0.609375 0.78125 1.71875 0.78125zm6.4375 -6.40625q0.953125 -1.171875 2.5 -1.171875q2.671875 0 2.703125 3.015625l0 5.59375l-1.453125 0l0 -5.59375q0 -0.921875 -0.421875 -1.359375q-0.40625 -0.4375 -1.265625 -0.4375q-0.703125 0 -1.234375 0.375q-0.53125 0.375 -0.828125 0.984375l0 6.03125l-1.453125 0l0 -12.0l1.453125 0l0 4.5625z" fill-rule="nonzero"/><path fill="#000000" fill-opacity="0.0" d="m201.32545 315.5013l0 -291.49606" fill-rule="evenodd"/><path stroke="#000000" stroke-width="1.0" stroke-linejoin="round" stroke-linecap="butt" d="m201.32545 315.5013l0 -291.49606" fill-rule="evenodd"/><path fill="#000000" d="m200.04987 325.01312l0 0c0 -0.7044983 0.57110596 -1.2756042 1.275589 -1.2756042l0 0c0.33831787 0 0.6627655 0.13439941 0.90197754 0.3736267c0.2392273 0.2392273 0.37361145 0.56365967 0.37361145 0.90197754l0 0c0 0.7044983 -0.5710907 1.2756042 -1.275589 1.2756042l0 0c-0.70448303 0 -1.275589 -0.57110596 -1.275589 -1.2756042z" fill-rule="evenodd"/><path stroke="#000000" stroke-width="1.0" stroke-linejoin="round" stroke-linecap="butt" d="m200.04987 325.01312l0 0c0 -0.7044983 0.57110596 -1.2756042 1.275589 -1.2756042l0 0c0.33831787 0 0.6627655 0.13439941 0.90197754 0.3736267c0.2392273 0.2392273 0.37361145 0.56365967 0.37361145 0.90197754l0 0c0 0.7044983 -0.5710907 1.2756042 -1.275589 1.2756042l0 0c-0.70448303 0 -1.275589 -0.57110596 -1.275589 -1.2756042z" fill-rule="evenodd"/><path fill="#000000" d="m200.04987 333.31235l0 0c0 -0.7044983 0.57110596 -1.2756042 1.275589 -1.2756042l0 0c0.33831787 0 0.6627655 0.13439941 0.90197754 0.3736267c0.2392273 0.23919678 0.37361145 0.56365967 0.37361145 0.90197754l0 0c0 0.7044678 -0.5710907 1.2755737 -1.275589 1.2755737l0 0c-0.70448303 0 -1.275589 -0.57110596 -1.275589 -1.2755737z" fill-rule="evenodd"/><path stroke="#000000" stroke-width="1.0" stroke-linejoin="round" stroke-linecap="butt" d="m200.04987 333.31235l0 0c0 -0.7044983 0.57110596 -1.2756042 1.275589 -1.2756042l0 0c0.33831787 0 0.6627655 0.13439941 0.90197754 0.3736267c0.2392273 0.23919678 0.37361145 0.56365967 0.37361145 0.90197754l0 0c0 0.7044678 -0.5710907 1.2755737 -1.275589 1.2755737l0 0c-0.70448303 0 -1.275589 -0.57110596 -1.275589 -1.2755737z" fill-rule="evenodd"/><path fill="#000000" d="m200.04987 341.61154l0 0c0 -0.7044678 0.57110596 -1.2755737 1.275589 -1.2755737l0 0c0.33831787 0 0.6627655 0.1343689 0.90197754 0.3735962c0.2392273 0.2392273 0.37361145 0.5636902 0.37361145 0.90197754l0 0c0 0.7044983 -0.5710907 1.2756042 -1.275589 1.2756042l0 0c-0.70448303 0 -1.275589 -0.57110596 -1.275589 -1.2756042z" fill-rule="evenodd"/><path stroke="#000000" stroke-width="1.0" stroke-linejoin="round" stroke-linecap="butt" d="m200.04987 341.61154l0 0c0 -0.7044678 0.57110596 -1.2755737 1.275589 -1.2755737l0 0c0.33831787 0 0.6627655 0.1343689 0.90197754 0.3735962c0.2392273 0.2392273 0.37361145 0.5636902 0.37361145 0.90197754l0 0c0 0.7044983 -0.5710907 1.2756042 -1.275589 1.2756042l0 0c-0.70448303 0 -1.275589 -0.57110596 -1.275589 -1.2756042z" fill-rule="evenodd"/><path fill="#000000" fill-opacity="0.0" d="m192.11285 360.45145l18.425201 0" fill-rule="evenodd"/><path stroke="#000000" stroke-width="1.0" stroke-linejoin="round" stroke-linecap="butt" d="m192.11285 360.45145l18.425201 0" fill-rule="evenodd"/><path fill="#000000" fill-opacity="0.0" d="m192.11285 405.57742l18.425201 0" fill-rule="evenodd"/><path stroke="#000000" stroke-width="1.0" stroke-linejoin="round" stroke-linecap="butt" d="m192.11285 405.57742l18.425201 0" fill-rule="evenodd"/><path fill="#000000" fill-opacity="0.0" d="m105.07874 341.01575l90.23621 0l0 25.196838l-90.23621 0z" fill-rule="evenodd"/><path fill="#000000" d="m124.26809 365.37576q-0.125 -0.25 -0.203125 -0.890625q-1.0 1.046875 -2.40625 1.046875q-1.25 0 -2.046875 -0.703125q-0.796875 -0.71875 -0.796875 -1.796875q0 -1.328125 1.0 -2.046875q1.0 -0.734375 2.828125 -0.734375l1.40625 0l0 -0.671875q0 -0.75 -0.453125 -1.203125q-0.453125 -0.453125 -1.34375 -0.453125q-0.765625 0 -1.296875 0.390625q-0.515625 0.390625 -0.515625 0.953125l-1.453125 0q0 -0.640625 0.4375 -1.21875q0.453125 -0.59375 1.21875 -0.9375q0.78125 -0.34375 1.703125 -0.34375q1.453125 0 2.28125 0.734375q0.828125 0.71875 0.859375 2.0l0 3.890625q0 1.171875 0.296875 1.859375l0 0.125l-1.515625 0zm-2.390625 -1.109375q0.671875 0 1.28125 -0.34375q0.609375 -0.359375 0.890625 -0.921875l0 -1.734375l-1.140625 0q-2.65625 0 -2.65625 1.5625q0 0.671875 0.453125 1.0625q0.453125 0.375 1.171875 0.375zm6.5937424 1.109375l0 -7.34375l-1.3437424 0l0 -1.109375l1.3437424 0l0 -0.875q0 -1.359375 0.71875 -2.09375q0.734375 -0.75 2.0625 -0.75q0.5 0 0.984375 0.140625l-0.078125 1.171875q-0.359375 -0.078125 -0.78125 -0.078125q-0.703125 0 -1.09375 0.421875q-0.375 0.40625 -0.375 1.171875l0 0.890625l1.8125 0l0 1.109375l-1.8125 0l0 7.34375l-1.4375 0zm6.8046875 -10.5l0 2.046875l1.578125 0l0 1.109375l-1.578125 0l0 5.25q0 0.5 0.203125 0.765625q0.21875 0.25 0.71875 0.25q0.25 0 0.6875 -0.09375l0 1.171875q-0.5625 0.15625 -1.109375 0.15625q-0.96875 0 -1.46875 -0.578125q-0.484375 -0.59375 -0.484375 -1.671875l0 -5.25l-1.53125 0l0 -1.109375l1.53125 0l0 -2.046875l1.453125 0zm6.7734375 10.65625q-1.71875 0 -2.796875 -1.125q-1.078125 -1.140625 -1.078125 -3.03125l0 -0.265625q0 -1.25 0.46875 -2.234375q0.484375 -1.0 1.34375 -1.546875q0.875 -0.5625 1.875 -0.5625q1.65625 0 2.5625 1.09375q0.921875 1.078125 0.921875 3.09375l0 0.609375l-5.734375 0q0.03125 1.25 0.734375 2.015625q0.703125 0.765625 1.78125 0.765625q0.765625 0 1.296875 -0.3125q0.53125 -0.3125 0.921875 -0.828125l0.890625 0.6875q-1.0625 1.640625 -3.1875 1.640625zm-0.1875 -7.578125q-0.875 0 -1.46875 0.640625q-0.59375 0.625 -0.734375 1.78125l4.234375 0l0 -0.109375q-0.0625 -1.109375 -0.59375 -1.703125q-0.53125 -0.609375 -1.4375 -0.609375zm9.2421875 0.265625q-0.328125 -0.0625 -0.71875 -0.0625q-1.421875 0 -1.921875 1.21875l0 6.0l-1.453125 0l0 -8.453125l1.40625 0l0.03125 0.96875q0.703125 -1.125 2.015625 -1.125q0.421875 0 0.640625 0.109375l0 1.34375zm7.9765625 1.890625l-4.921875 0l0 4.03125l5.71875 0l0 1.234375l-7.21875 0l0 -11.375l7.140625 0l0 1.234375l-5.640625 0l0 3.65625l4.921875 0l0 1.21875zm7.65625 5.265625q-0.125 -0.25 -0.203125 -0.890625q-1.0 1.046875 -2.40625 1.046875q-1.25 0 -2.046875 -0.703125q-0.796875 -0.71875 -0.796875 -1.796875q0 -1.328125 1.0 -2.046875q1.0 -0.734375 2.828125 -0.734375l1.40625 0l0 -0.671875q0 -0.75 -0.453125 -1.203125q-0.453125 -0.453125 -1.34375 -0.453125q-0.765625 0 -1.296875 0.390625q-0.515625 0.390625 -0.515625 0.953125l-1.453125 0q0 -0.640625 0.4375 -1.21875q0.453125 -0.59375 1.21875 -0.9375q0.78125 -0.34375 1.703125 -0.34375q1.453125 0 2.28125 0.734375q0.828125 0.71875 0.859375 2.0l0 3.890625q0 1.171875 0.296875 1.859375l0 0.125l-1.515625 0zm-2.390625 -1.109375q0.671875 0 1.28125 -0.34375q0.609375 -0.359375 0.890625 -0.921875l0 -1.734375l-1.140625 0q-2.65625 0 -2.65625 1.5625q0 0.671875 0.453125 1.0625q0.453125 0.375 1.171875 0.375zm9.265625 0.078125q0.78125 0 1.359375 -0.46875q0.578125 -0.46875 0.640625 -1.171875l1.359375 0q-0.03125 0.734375 -0.5 1.390625q-0.453125 0.65625 -1.234375 1.046875q-0.765625 0.390625 -1.625 0.390625q-1.71875 0 -2.75 -1.15625q-1.015625 -1.15625 -1.015625 -3.15625l0 -0.234375q0 -1.234375 0.453125 -2.1875q0.453125 -0.96875 1.296875 -1.5q0.859375 -0.53125 2.015625 -0.53125q1.421875 0 2.359375 0.859375q0.9375 0.84375 1.0 2.203125l-1.359375 0q-0.0625 -0.828125 -0.625 -1.34375q-0.5625 -0.53125 -1.375 -0.53125q-1.109375 0 -1.71875 0.796875q-0.59375 0.78125 -0.59375 2.28125l0 0.28125q0 1.453125 0.59375 2.25q0.609375 0.78125 1.71875 0.78125zm6.4375 -6.40625q0.953125 -1.171875 2.5 -1.171875q2.671875 0 2.703125 3.015625l0 5.59375l-1.453125 0l0 -5.59375q0 -0.921875 -0.421875 -1.359375q-0.40625 -0.4375 -1.265625 -0.4375q-0.703125 0 -1.234375 0.375q-0.53125 0.375 -0.828125 0.984375l0 6.03125l-1.453125 0l0 -12.0l1.453125 0l0 4.5625z" fill-rule="nonzero"/><path fill="#000000" fill-opacity="0.0" d="m110.00525 386.99738l85.60629 0l0 27.590546l-85.60629 0z" fill-rule="evenodd"/><path fill="#000000" d="m141.34593 411.35736q-0.125 -0.25 -0.203125 -0.890625q-1.0 1.046875 -2.40625 1.046875q-1.25 0 -2.046875 -0.703125q-0.796875 -0.71875 -0.796875 -1.796875q0 -1.328125 1.0 -2.046875q1.0 -0.734375 2.828125 -0.734375l1.40625 0l0 -0.671875q0 -0.75 -0.453125 -1.203125q-0.453125 -0.453125 -1.34375 -0.453125q-0.765625 0 -1.296875 0.390625q-0.515625 0.390625 -0.515625 0.953125l-1.453125 0q0 -0.640625 0.4375 -1.21875q0.453125 -0.59375 1.21875 -0.9375q0.78125 -0.34375 1.703125 -0.34375q1.453125 0 2.28125 0.734375q0.828125 0.71875 0.859375 2.0l0 3.890625q0 1.171875 0.296875 1.859375l0 0.125l-1.515625 0zm-2.390625 -1.109375q0.671875 0 1.28125 -0.34375q0.609375 -0.359375 0.890625 -0.921875l0 -1.734375l-1.140625 0q-2.65625 0 -2.65625 1.5625q0 0.671875 0.453125 1.0625q0.453125 0.375 1.171875 0.375zm6.59375 1.109375l0 -7.34375l-1.34375 0l0 -1.109375l1.34375 0l0 -0.875q0 -1.359375 0.71875 -2.09375q0.734375 -0.75 2.0625 -0.75q0.5 0 0.984375 0.140625l-0.078125 1.171875q-0.359375 -0.078125 -0.78125 -0.078125q-0.703125 0 -1.09375 0.421875q-0.375 0.40625 -0.375 1.171875l0 0.890625l1.8125 0l0 1.109375l-1.8125 0l0 7.34375l-1.4375 0zm6.8046875 -10.5l0 2.046875l1.578125 0l0 1.109375l-1.578125 0l0 5.25q0 0.5 0.203125 0.765625q0.21875 0.25 0.71875 0.25q0.25 0 0.6875 -0.09375l0 1.171875q-0.5625 0.15625 -1.109375 0.15625q-0.96875 0 -1.46875 -0.578125q-0.484375 -0.59375 -0.484375 -1.671875l0 -5.25l-1.53125 0l0 -1.109375l1.53125 0l0 -2.046875l1.453125 0zm6.7734375 10.65625q-1.71875 0 -2.796875 -1.125q-1.078125 -1.140625 -1.078125 -3.03125l0 -0.265625q0 -1.25 0.46875 -2.234375q0.484375 -1.0 1.34375 -1.546875q0.875 -0.5625 1.875 -0.5625q1.65625 0 2.5625 1.09375q0.921875 1.078125 0.921875 3.09375l0 0.609375l-5.734375 0q0.03125 1.25 0.734375 2.015625q0.703125 0.765625 1.78125 0.765625q0.765625 0 1.296875 -0.3125q0.53125 -0.3125 0.921875 -0.828125l0.890625 0.6875q-1.0625 1.640625 -3.1875 1.640625zm-0.1875 -7.578125q-0.875 0 -1.46875 0.640625q-0.59375 0.625 -0.734375 1.78125l4.234375 0l0 -0.109375q-0.0625 -1.109375 -0.59375 -1.703125q-0.53125 -0.609375 -1.4375 -0.609375zm9.2421875 0.265625q-0.328125 -0.0625 -0.71875 -0.0625q-1.421875 0 -1.921875 1.21875l0 6.0l-1.453125 0l0 -8.453125l1.40625 0l0.03125 0.96875q0.703125 -1.125 2.015625 -1.125q0.421875 0 0.640625 0.109375l0 1.34375zm7.8359375 4.1875l-4.765625 0l-1.078125 2.96875l-1.546875 0l4.34375 -11.375l1.3125 0l4.359375 11.375l-1.546875 0l-1.078125 -2.96875zm-4.3125 -1.234375l3.859375 0l-1.9375 -5.328125l-1.921875 5.328125zm9.8125 4.203125l-1.453125 0l0 -12.0l1.453125 0l0 12.0zm3.8828125 0l-1.453125 0l0 -12.0l1.453125 0l0 12.0z" fill-rule="nonzero"/><path fill="#000000" fill-opacity="0.0" d="m201.32545 454.75067l0 -103.71655" fill-rule="evenodd"/><path stroke="#000000" stroke-width="1.0" stroke-linejoin="round" stroke-linecap="butt" d="m201.32545 448.75067l0 -97.71655" fill-rule="evenodd"/><path fill="#000000" stroke="#000000" stroke-width="1.0" stroke-linecap="butt" d="m199.67372 448.75067l1.6517334 4.538086l1.6517334 -4.538086z" fill-rule="evenodd"/><path fill="#000000" fill-opacity="0.0" d="m219.3727 37.939632l72.000015 0l0 32.598423l-72.000015 0z" fill-rule="evenodd"/><path fill="#6db33f" d="m233.04457 57.221508q-1.921875 -0.546875 -2.8125 -1.359375q-0.875 -0.8125 -0.875 -2.0q0 -1.34375 1.078125 -2.21875q1.078125 -0.875 2.796875 -0.875q1.171875 0 2.078125 0.453125q0.921875 0.453125 1.421875 1.25q0.515625 0.796875 0.515625 1.734375l-1.515625 0q0 -1.03125 -0.65625 -1.609375q-0.65625 -0.59375 -1.84375 -0.59375q-1.109375 0 -1.734375 0.484375q-0.625 0.484375 -0.625 1.359375q0 0.6875 0.59375 1.171875q0.59375 0.484375 2.0 0.890625q1.421875 0.390625 2.21875 0.875q0.8125 0.46875 1.1875 1.109375q0.390625 0.640625 0.390625 1.515625q0 1.375 -1.078125 2.21875q-1.078125 0.828125 -2.875 0.828125q-1.171875 0 -2.1875 -0.453125q-1.015625 -0.453125 -1.578125 -1.234375q-0.546875 -0.78125 -0.546875 -1.765625l1.515625 0q0 1.03125 0.75 1.625q0.765625 0.59375 2.046875 0.59375q1.1875 0 1.8125 -0.484375q0.640625 -0.484375 0.640625 -1.3125q0 -0.84375 -0.59375 -1.296875q-0.578125 -0.453125 -2.125 -0.90625zm13.0546875 0.9375q0 1.9375 -0.890625 3.125q-0.875 1.171875 -2.375 1.171875q-1.546875 0 -2.421875 -0.984375l0 4.078129l-1.453125 0l0 -11.703129l1.328125 0l0.0625 0.9375q0.890625 -1.09375 2.453125 -1.09375q1.53125 0 2.40625 1.15625q0.890625 1.140625 0.890625 3.1875l0 0.125zm-1.4375 -0.15625q0 -1.4375 -0.609375 -2.265625q-0.609375 -0.828125 -1.671875 -0.828125q-1.3125 0 -1.96875 1.171875l0 4.03125q0.640625 1.15625 1.984375 1.15625q1.03125 0 1.640625 -0.8125q0.625 -0.828125 0.625 -2.453125zm7.3671875 -2.859375q-0.328125 -0.0625 -0.71875 -0.0625q-1.421875 0 -1.921875 1.21875l0 6.0l-1.453125 0l0 -8.453125l1.40625 0l0.03125 0.96875q0.703125 -1.125 2.015625 -1.125q0.421875 0 0.640625 0.109375l0 1.34375zm2.8984375 7.15625l-1.453125 0l0 -8.453125l1.453125 0l0 8.453125zm-1.5625 -10.703125q0 -0.34375 0.203125 -0.578125q0.21875 -0.25 0.640625 -0.25q0.421875 0 0.640625 0.25q0.21875 0.234375 0.21875 0.59375q0 0.34375 -0.21875 0.578125q-0.21875 0.234375 -0.640625 0.234375q-0.421875 0 -0.640625 -0.234375q-0.203125 -0.234375 -0.203125 -0.59375zm5.2422028 2.25l0.046875 1.0625q0.96875 -1.21875 2.53125 -1.21875q2.671875 0 2.703125 3.015625l0 5.59375l-1.453125 0l0 -5.59375q0 -0.921875 -0.421875 -1.359375q-0.40625 -0.4375 -1.265625 -0.4375q-0.703125 0 -1.234375 0.375q-0.53125 0.375 -0.828125 0.984375l0 6.03125l-1.453125 0l0 -8.453125l1.375 0zm7.109375 4.15625q0 -1.984375 0.90625 -3.140625q0.921875 -1.171875 2.4375 -1.171875q1.546875 0 2.40625 1.09375l0.078125 -0.9375l1.3125 0l0 8.25q0 1.640625 -0.96875 2.5781288q-0.96875 0.953125 -2.609375 0.953125q-0.921875 0 -1.796875 -0.390625q-0.875 -0.390625 -1.328125 -1.0625l0.75 -0.8750038q0.921875 1.1562538 2.265625 1.1562538q1.0625 0 1.640625 -0.5937538q0.59375 -0.59375 0.59375 -1.6875l0 -0.71875q-0.859375 1.0 -2.359375 1.0q-1.484375 0 -2.40625 -1.1875q-0.921875 -1.203125 -0.921875 -3.265625zm1.453125 0.15625q0 1.4375 0.578125 2.25q0.59375 0.8125 1.65625 0.8125q1.359375 0 2.0 -1.234375l0 -3.859375q-0.65625 -1.21875 -1.984375 -1.21875q-1.0625 0 -1.65625 0.828125q-0.59375 0.8125 -0.59375 2.421875z" fill-rule="nonzero"/><path fill="#000000" fill-opacity="0.0" d="m297.95276 60.87664l90.236206 0l0 26.48819l-90.236206 0z" fill-rule="evenodd"/><path fill="#3c7da0" d="m308.28088 85.23664l0 -11.375l3.71875 0q1.84375 0 2.78125 0.765625q0.9375 0.765625 0.9375 2.265625q0 0.796875 -0.453125 1.40625q-0.453125 0.609375 -1.234375 0.953125q0.921875 0.25 1.453125 0.984375q0.53125 0.71875 0.53125 1.71875q0 1.53125 -1.0 2.40625q-0.984375 0.875 -2.796875 0.875l-3.9375 0zm1.5 -5.328125l0 4.09375l2.46875 0q1.046875 0 1.65625 -0.53125q0.609375 -0.546875 0.609375 -1.5q0 -2.0625 -2.234375 -2.0625l-2.5 0zm0 -1.203125l2.265625 0q0.984375 0 1.5625 -0.484375q0.59375 -0.5 0.59375 -1.34375q0 -0.9375 -0.546875 -1.359375q-0.546875 -0.421875 -1.65625 -0.421875l-2.21875 0l0 3.609375zm11.7421875 6.6875q-1.71875 0 -2.796875 -1.125q-1.078125 -1.140625 -1.078125 -3.03125l0 -0.265625q0 -1.25 0.46875 -2.234375q0.484375 -1.0 1.34375 -1.546875q0.875 -0.5625 1.875 -0.5625q1.65625 0 2.5625 1.09375q0.921875 1.078125 0.921875 3.09375l0 0.609375l-5.734375 0q0.03125 1.25 0.734375 2.015625q0.703125 0.765625 1.78125 0.765625q0.765625 0 1.296875 -0.3125q0.53125 -0.3125 0.921875 -0.828125l0.890625 0.6875q-1.0625 1.640625 -3.1875 1.640625zm-0.1875 -7.578125q-0.875 0 -1.46875 0.640625q-0.59375 0.625 -0.734375 1.78125l4.234375 0l0 -0.109375q-0.0625 -1.109375 -0.59375 -1.703125q-0.53125 -0.609375 -1.4375 -0.609375zm5.8671875 7.421875l0 -7.34375l-1.34375 0l0 -1.109375l1.34375 0l0 -0.875q0 -1.359375 0.71875 -2.09375q0.734375 -0.75 2.0625 -0.75q0.5 0 0.984375 0.140625l-0.078125 1.171875q-0.359375 -0.078125 -0.78125 -0.078125q-0.703125 0 -1.09375 0.421875q-0.375 0.40625 -0.375 1.171875l0 0.890625l1.8125 0l0 1.109375l-1.8125 0l0 7.34375l-1.4375 0zm4.4609375 -4.3125q0 -1.234375 0.484375 -2.21875q0.484375 -1.0 1.359375 -1.53125q0.875 -0.546875 1.984375 -0.546875q1.734375 0 2.796875 1.203125q1.0625 1.1875 1.0625 3.171875l0 0.09375q0 1.234375 -0.46875 2.21875q-0.46875 0.984375 -1.359375 1.53125q-0.875 0.546875 -2.015625 0.546875q-1.71875 0 -2.78125 -1.1875q-1.0625 -1.203125 -1.0625 -3.171875l0 -0.109375zm1.453125 0.171875q0 1.40625 0.640625 2.265625q0.65625 0.84375 1.75 0.84375q1.109375 0 1.75 -0.859375q0.65625 -0.859375 0.65625 -2.421875q0 -1.390625 -0.671875 -2.25q-0.65625 -0.859375 -1.75 -0.859375q-1.0625 0 -1.71875 0.859375q-0.65625 0.84375 -0.65625 2.421875zm12.140625 -3.015625q-0.328125 -0.0625 -0.71875 -0.0625q-1.421875 0 -1.921875 1.21875l0 6.0l-1.453125 0l0 -8.453125l1.40625 0l0.03125 0.96875q0.703125 -1.125 2.015625 -1.125q0.421875 0 0.640625 0.109375l0 1.34375zm4.8359375 7.3125q-1.71875 0 -2.796875 -1.125q-1.078125 -1.140625 -1.078125 -3.03125l0 -0.265625q0 -1.25 0.46875 -2.234375q0.484375 -1.0 1.34375 -1.546875q0.875 -0.5625 1.875 -0.5625q1.65625 0 2.5625 1.09375q0.921875 1.078125 0.921875 3.09375l0 0.609375l-5.734375 0q0.03125 1.25 0.734375 2.015625q0.703125 0.765625 1.78125 0.765625q0.765625 0 1.296875 -0.3125q0.53125 -0.3125 0.921875 -0.828125l0.890625 0.6875q-1.0625 1.640625 -3.1875 1.640625zm-0.1875 -7.578125q-0.875 0 -1.46875 0.640625q-0.59375 0.625 -0.734375 1.78125l4.234375 0l0 -0.109375q-0.0625 -1.109375 -0.59375 -1.703125q-0.53125 -0.609375 -1.4375 -0.609375zm15.625 4.453125l-4.765625 0l-1.078125 2.96875l-1.546875 0l4.34375 -11.375l1.3125 0l4.359375 11.375l-1.546875 0l-1.078125 -2.96875zm-4.3125 -1.234375l3.859375 0l-1.9375 -5.328125l-1.921875 5.328125zm9.8125 4.203125l-1.453125 0l0 -12.0l1.453125 0l0 12.0zm3.8828125 0l-1.453125 0l0 -12.0l1.453125 0l0 12.0z" fill-rule="nonzero"/><path fill="#000000" fill-opacity="0.0" d="m219.3727 128.51181l74.488205 0l0 33.606293l-74.488205 0z" fill-rule="evenodd"/><path fill="#eedf7b" d="m229.70082 152.87181l0 -11.375l3.71875 0q1.84375 0 2.78125 0.765625q0.9375 0.765625 0.9375 2.265625q0 0.796875 -0.453125 1.40625q-0.453125 0.609375 -1.234375 0.953125q0.921875 0.25 1.453125 0.984375q0.53125 0.71875 0.53125 1.71875q0 1.53125 -1.0 2.40625q-0.984375 0.875 -2.796875 0.875l-3.9375 0zm1.5 -5.328125l0 4.09375l2.46875 0q1.046875 0 1.65625 -0.53125q0.609375 -0.546875 0.609375 -1.5q0 -2.0625 -2.234375 -2.0625l-2.5 0zm0 -1.203125l2.265625 0q0.984375 0 1.5625 -0.484375q0.59375 -0.5 0.59375 -1.34375q0 -0.9375 -0.546875 -1.359375q-0.546875 -0.421875 -1.65625 -0.421875l-2.21875 0l0 3.609375zm11.7421875 6.6875q-1.71875 0 -2.796875 -1.125q-1.078125 -1.140625 -1.078125 -3.03125l0 -0.265625q0 -1.25 0.46875 -2.234375q0.484375 -1.0 1.34375 -1.546875q0.875 -0.5625 1.875 -0.5625q1.65625 0 2.5625 1.09375q0.921875 1.078125 0.921875 3.09375l0 0.609375l-5.734375 0q0.03125 1.25 0.734375 2.015625q0.703125 0.765625 1.78125 0.765625q0.765625 0 1.296875 -0.3125q0.53125 -0.3125 0.921875 -0.828125l0.890625 0.6875q-1.0625 1.640625 -3.1875 1.640625zm-0.1875 -7.578125q-0.875 0 -1.46875 0.640625q-0.59375 0.625 -0.734375 1.78125l4.234375 0l0 -0.109375q-0.0625 -1.109375 -0.59375 -1.703125q-0.53125 -0.609375 -1.4375 -0.609375zm5.8671875 7.421875l0 -7.34375l-1.34375 0l0 -1.109375l1.34375 0l0 -0.875q0 -1.359375 0.71875 -2.09375q0.734375 -0.75 2.0625 -0.75q0.5 0 0.984375 0.140625l-0.078125 1.171875q-0.359375 -0.078125 -0.78125 -0.078125q-0.703125 0 -1.09375 0.421875q-0.375 0.40625 -0.375 1.171875l0 0.890625l1.8125 0l0 1.109375l-1.8125 0l0 7.34375l-1.4375 0zm4.4609375 -4.3125q0 -1.234375 0.484375 -2.21875q0.484375 -1.0 1.359375 -1.53125q0.875 -0.546875 1.9843903 -0.546875q1.734375 0 2.796875 1.203125q1.0625 1.1875 1.0625 3.171875l0 0.09375q0 1.234375 -0.46875 2.21875q-0.46875 0.984375 -1.359375 1.53125q-0.875 0.546875 -2.015625 0.546875q-1.7187653 0 -2.7812653 -1.1875q-1.0625 -1.203125 -1.0625 -3.171875l0 -0.109375zm1.453125 0.171875q0 1.40625 0.640625 2.265625q0.65625 0.84375 1.7500153 0.84375q1.109375 0 1.75 -0.859375q0.65625 -0.859375 0.65625 -2.421875q0 -1.390625 -0.671875 -2.25q-0.65625 -0.859375 -1.75 -0.859375q-1.0625153 0 -1.7187653 0.859375q-0.65625 0.84375 -0.65625 2.421875zm12.14064 -3.015625q-0.328125 -0.0625 -0.71875 -0.0625q-1.421875 0 -1.921875 1.21875l0 6.0l-1.453125 0l0 -8.453125l1.40625 0l0.03125 0.96875q0.703125 -1.125 2.015625 -1.125q0.421875 0 0.640625 0.109375l0 1.34375zm4.8359375 7.3125q-1.71875 0 -2.796875 -1.125q-1.078125 -1.140625 -1.078125 -3.03125l0 -0.265625q0 -1.25 0.46875 -2.234375q0.484375 -1.0 1.34375 -1.546875q0.875 -0.5625 1.875 -0.5625q1.65625 0 2.5625 1.09375q0.921875 1.078125 0.921875 3.09375l0 0.609375l-5.734375 0q0.03125 1.25 0.734375 2.015625q0.703125 0.765625 1.78125 0.765625q0.765625 0 1.296875 -0.3125q0.53125 -0.3125 0.921875 -0.828125l0.890625 0.6875q-1.0625 1.640625 -3.1875 1.640625zm-0.1875 -7.578125q-0.875 0 -1.46875 0.640625q-0.59375 0.625 -0.734375 1.78125l4.234375 0l0 -0.109375q-0.0625 -1.109375 -0.59375 -1.703125q-0.53125 -0.609375 -1.4375 -0.609375z" fill-rule="nonzero"/><path fill="#000000" fill-opacity="0.0" d="m219.3727 173.6378l74.488205 0l0 33.606293l-74.488205 0z" fill-rule="evenodd"/><path fill="#dc524a" d="m236.1227 192.73218l-4.921875 0l0 4.03125l5.71875 0l0 1.234375l-7.21875 0l0 -11.375l7.140625 0l0 1.234375l-5.640625 0l0 3.65625l4.921875 0l0 1.21875zm5.28125 -0.109375l1.875 -3.078125l1.6875 0l-2.765625 4.171875l2.84375 4.28125l-1.671875 0l-1.953125 -3.171875l-1.953125 3.171875l-1.671875 0l2.84375 -4.28125l-2.765625 -4.171875l1.671875 0l1.859375 3.078125zm8.6015625 5.53125q-1.71875 0 -2.796875 -1.125q-1.078125 -1.140625 -1.078125 -3.03125l0 -0.265625q0 -1.25 0.46875 -2.234375q0.484375 -1.0 1.34375 -1.546875q0.875 -0.5625 1.875 -0.5625q1.65625 0 2.5625 1.09375q0.921875 1.078125 0.921875 3.09375l0 0.609375l-5.734375 0q0.03125 1.25 0.734375 2.015625q0.703125 0.765625 1.78125 0.765625q0.765625 0 1.296875 -0.3125q0.53125 -0.3125 0.921875 -0.828125l0.890625 0.6875q-1.0625 1.640625 -3.1875 1.640625zm-0.1875 -7.578125q-0.875 0 -1.46875 0.640625q-0.59375 0.625 -0.734375 1.78125l4.234375 0l0 -0.109375q-0.0625 -1.109375 -0.59375 -1.703125q-0.53125 -0.609375 -1.4375 -0.609375zm8.539078 6.390625q0.78125 0 1.359375 -0.46875q0.578125 -0.46875 0.640625 -1.171875l1.359375 0q-0.03125 0.734375 -0.5 1.390625q-0.453125 0.65625 -1.234375 1.046875q-0.765625 0.390625 -1.625 0.390625q-1.71875 0 -2.7500153 -1.15625q-1.015625 -1.15625 -1.015625 -3.15625l0 -0.234375q0 -1.234375 0.453125 -2.1875q0.453125 -0.96875 1.2968903 -1.5q0.859375 -0.53125 2.015625 -0.53125q1.421875 0 2.359375 0.859375q0.9375 0.84375 1.0 2.203125l-1.359375 0q-0.0625 -0.828125 -0.625 -1.34375q-0.5625 -0.53125 -1.375 -0.53125q-1.109375 0 -1.71875 0.796875q-0.59375 0.78125 -0.59375 2.28125l0 0.28125q0 1.453125 0.59375 2.25q0.609375 0.78125 1.71875 0.78125z" fill-rule="nonzero"/><path fill="#000000" fill-opacity="0.0" d="m219.3727 218.76378l74.488205 0l0 33.606293l-74.488205 0z" fill-rule="evenodd"/><path fill="#eac950" d="m235.98207 240.15503l-4.765625 0l-1.078125 2.96875l-1.546875 0l4.34375 -11.375l1.3125 0l4.359375 11.375l-1.546875 0l-1.078125 -2.96875zm-4.3125 -1.234375l3.859375 0l-1.9375 -5.328125l-1.921875 5.328125zm8.953125 4.203125l0 -7.34375l-1.34375 0l0 -1.109375l1.34375 0l0 -0.875q0 -1.359375 0.71875 -2.09375q0.734375 -0.75 2.0625 -0.75q0.5 0 0.984375 0.140625l-0.078125 1.171875q-0.359375 -0.078125 -0.78125 -0.078125q-0.703125 0 -1.09375 0.421875q-0.375 0.40625 -0.375 1.171875l0 0.890625l1.8125 0l0 1.109375l-1.8125 0l0 7.34375l-1.4375 0zm6.8046875 -10.5l0 2.046875l1.578125 0l0 1.109375l-1.578125 0l0 5.25q0 0.5 0.203125 0.765625q0.21875 0.25 0.71875 0.25q0.25 0 0.6875 -0.09375l0 1.171875q-0.5625 0.15625 -1.109375 0.15625q-0.96875 0 -1.46875 -0.578125q-0.484375 -0.59375 -0.484375 -1.671875l0 -5.25l-1.53125 0l0 -1.109375l1.53125 0l0 -2.046875l1.453125 0zm6.7734375 10.65625q-1.71875 0 -2.796875 -1.125q-1.078125 -1.140625 -1.078125 -3.03125l0 -0.265625q0 -1.25 0.46875 -2.234375q0.484375 -1.0 1.34375 -1.546875q0.875 -0.5625 1.875 -0.5625q1.65625 0 2.5625153 1.09375q0.921875 1.078125 0.921875 3.09375l0 0.609375l-5.7343903 0q0.03125 1.25 0.734375 2.015625q0.703125 0.765625 1.78125 0.765625q0.765625 0 1.296875 -0.3125q0.53126526 -0.3125 0.92189026 -0.828125l0.890625 0.6875q-1.0625 1.640625 -3.1875153 1.640625zm-0.1875 -7.578125q-0.875 0 -1.46875 0.640625q-0.59375 0.625 -0.734375 1.78125l4.2343903 0l0 -0.109375q-0.06251526 -1.109375 -0.59376526 -1.703125q-0.53125 -0.609375 -1.4375 -0.609375zm9.242203 0.265625q-0.328125 -0.0625 -0.71875 -0.0625q-1.421875 0 -1.921875 1.21875l0 6.0l-1.453125 0l0 -8.453125l1.40625 0l0.03125 0.96875q0.703125 -1.125 2.015625 -1.125q0.421875 0 0.640625 0.109375l0 1.34375z" fill-rule="nonzero"/><path fill="#000000" fill-opacity="0.0" d="m219.3727 264.0551l85.60631 0l0 33.606293l-85.60631 0z" fill-rule="evenodd"/><path fill="#b4b4b4" d="m229.70082 288.41513l0 -11.375l3.71875 0q1.84375 0 2.78125 0.765625q0.9375 0.765625 0.9375 2.265625q0 0.796875 -0.453125 1.40625q-0.453125 0.609375 -1.234375 0.953125q0.921875 0.25 1.453125 0.984375q0.53125 0.71875 0.53125 1.71875q0 1.53125 -1.0 2.40625q-0.984375 0.875 -2.796875 0.875l-3.9375 0zm1.5 -5.328125l0 4.09375l2.46875 0q1.046875 0 1.65625 -0.53125q0.609375 -0.546875 0.609375 -1.5q0 -2.0625 -2.234375 -2.0625l-2.5 0zm0 -1.203125l2.265625 0q0.984375 0 1.5625 -0.484375q0.59375 -0.5 0.59375 -1.34375q0 -0.9375 -0.546875 -1.359375q-0.546875 -0.421875 -1.65625 -0.421875l-2.21875 0l0 3.609375zm11.7421875 6.6875q-1.71875 0 -2.796875 -1.125q-1.078125 -1.140625 -1.078125 -3.03125l0 -0.265625q0 -1.25 0.46875 -2.234375q0.484375 -1.0 1.34375 -1.546875q0.875 -0.5625 1.875 -0.5625q1.65625 0 2.5625 1.09375q0.921875 1.078125 0.921875 3.09375l0 0.609375l-5.734375 0q0.03125 1.25 0.734375 2.015625q0.703125 0.765625 1.78125 0.765625q0.765625 0 1.296875 -0.3125q0.53125 -0.3125 0.921875 -0.828125l0.890625 0.6875q-1.0625 1.640625 -3.1875 1.640625zm-0.1875 -7.578125q-0.875 0 -1.46875 0.640625q-0.59375 0.625 -0.734375 1.78125l4.234375 0l0 -0.109375q-0.0625 -1.109375 -0.59375 -1.703125q-0.53125 -0.609375 -1.4375 -0.609375zm7.1171875 -3.078125l0 2.046875l1.578125 0l0 1.109375l-1.578125 0l0 5.25q0 0.5 0.203125 0.765625q0.21875 0.25 0.71875 0.25q0.25 0 0.6875 -0.09375l0 1.171875q-0.5625 0.15625 -1.109375 0.15625q-0.96875 0 -1.46875 -0.578125q-0.484375 -0.59375 -0.484375 -1.671875l0 -5.25l-1.53125 0l0 -1.109375l1.53125 0l0 -2.046875l1.453125 0zm10.742203 8.5l1.625 -6.453125l1.453125 0l-2.46875 8.453125l-1.171875 0l-2.046875 -6.40625l-2.0 6.40625l-1.1718903 0l-2.453125 -8.453125l1.4375 0l1.65625 6.328125l1.9687653 -6.328125l1.171875 0l2.0 6.453125zm8.0546875 2.15625q-1.71875 0 -2.796875 -1.125q-1.078125 -1.140625 -1.078125 -3.03125l0 -0.265625q0 -1.25 0.46875 -2.234375q0.484375 -1.0 1.34375 -1.546875q0.875 -0.5625 1.875 -0.5625q1.65625 0 2.5625 1.09375q0.921875 1.078125 0.921875 3.09375l0 0.609375l-5.734375 0q0.03125 1.25 0.734375 2.015625q0.703125 0.765625 1.78125 0.765625q0.765625 0 1.296875 -0.3125q0.53125 -0.3125 0.921875 -0.828125l0.890625 0.6875q-1.0625 1.640625 -3.1875 1.640625zm-0.1875 -7.578125q-0.875 0 -1.46875 0.640625q-0.59375 0.625 -0.734375 1.78125l4.234375 0l0 -0.109375q-0.0625 -1.109375 -0.59375 -1.703125q-0.53125 -0.609375 -1.4375 -0.609375zm8.6640625 7.578125q-1.71875 0 -2.796875 -1.125q-1.078125 -1.140625 -1.078125 -3.03125l0 -0.265625q0 -1.25 0.46875 -2.234375q0.484375 -1.0 1.34375 -1.546875q0.875 -0.5625 1.875 -0.5625q1.65625 0 2.5625 1.09375q0.921875 1.078125 0.921875 3.09375l0 0.609375l-5.734375 0q0.03125 1.25 0.734375 2.015625q0.703125 0.765625 1.78125 0.765625q0.765625 0 1.296875 -0.3125q0.53125 -0.3125 0.921875 -0.828125l0.890625 0.6875q-1.0625 1.640625 -3.1875 1.640625zm-0.1875 -7.578125q-0.875 0 -1.46875 0.640625q-0.59375 0.625 -0.734375 1.78125l4.234375 0l0 -0.109375q-0.0625 -1.109375 -0.59375 -1.703125q-0.53125 -0.609375 -1.4375 -0.609375zm6.5234375 -1.03125l0.046875 1.0625q0.96875 -1.21875 2.53125 -1.21875q2.671875 0 2.703125 3.015625l0 5.59375l-1.453125 0l0 -5.59375q0 -0.921875 -0.421875 -1.359375q-0.40625 -0.4375 -1.265625 -0.4375q-0.703125 0 -1.234375 0.375q-0.53125 0.375 -0.828125 0.984375l0 6.03125l-1.453125 0l0 -8.453125l1.375 0z" fill-rule="nonzero"/><path fill="#000000" fill-opacity="0.0" d="m219.3727 363.31497l88.535446 0l0 33.606293l-88.535446 0z" fill-rule="evenodd"/><path fill="#82b4d0" d="m235.98207 384.7062l-4.765625 0l-1.078125 2.96875l-1.546875 0l4.34375 -11.375l1.3125 0l4.359375 11.375l-1.546875 0l-1.078125 -2.96875zm-4.3125 -1.234375l3.859375 0l-1.9375 -5.328125l-1.921875 5.328125zm8.953125 4.203125l0 -7.34375l-1.34375 0l0 -1.109375l1.34375 0l0 -0.875q0 -1.359375 0.71875 -2.09375q0.734375 -0.75 2.0625 -0.75q0.5 0 0.984375 0.140625l-0.078125 1.171875q-0.359375 -0.078125 -0.78125 -0.078125q-0.703125 0 -1.09375 0.421875q-0.375 0.40625 -0.375 1.171875l0 0.890625l1.8125 0l0 1.109375l-1.8125 0l0 7.34375l-1.4375 0zm6.8046875 -10.5l0 2.046875l1.578125 0l0 1.109375l-1.578125 0l0 5.25q0 0.5 0.203125 0.765625q0.21875 0.25 0.71875 0.25q0.25 0 0.6875 -0.09375l0 1.171875q-0.5625 0.15625 -1.109375 0.15625q-0.96875 0 -1.46875 -0.578125q-0.484375 -0.59375 -0.484375 -1.671875l0 -5.25l-1.53125 0l0 -1.109375l1.53125 0l0 -2.046875l1.453125 0zm6.7734375 10.65625q-1.71875 0 -2.796875 -1.125q-1.078125 -1.140625 -1.078125 -3.03125l0 -0.265625q0 -1.25 0.46875 -2.234375q0.484375 -1.0 1.34375 -1.546875q0.875 -0.5625 1.875 -0.5625q1.65625 0 2.5625153 1.09375q0.921875 1.078125 0.921875 3.09375l0 0.609375l-5.7343903 0q0.03125 1.25 0.734375 2.015625q0.703125 0.765625 1.78125 0.765625q0.765625 0 1.296875 -0.3125q0.53126526 -0.3125 0.92189026 -0.828125l0.890625 0.6875q-1.0625 1.640625 -3.1875153 1.640625zm-0.1875 -7.578125q-0.875 0 -1.46875 0.640625q-0.59375 0.625 -0.734375 1.78125l4.2343903 0l0 -0.109375q-0.06251526 -1.109375 -0.59376526 -1.703125q-0.53125 -0.609375 -1.4375 -0.609375zm9.242203 0.265625q-0.328125 -0.0625 -0.71875 -0.0625q-1.421875 0 -1.921875 1.21875l0 6.0l-1.453125 0l0 -8.453125l1.40625 0l0.03125 0.96875q0.703125 -1.125 2.015625 -1.125q0.421875 0 0.640625 0.109375l0 1.34375zm11.796875 4.1875l-4.765625 0l-1.078125 2.96875l-1.546875 0l4.34375 -11.375l1.3125 0l4.359375 11.375l-1.546875 0l-1.078125 -2.96875zm-4.3125 -1.234375l3.859375 0l-1.9375 -5.328125l-1.921875 5.328125zm9.8125 4.203125l-1.453125 0l0 -12.0l1.453125 0l0 12.0zm3.8828125 0l-1.453125 0l0 -12.0l1.453125 0l0 12.0z" fill-rule="nonzero"/><path fill="#6db33f" d="m213.00525 36.377953l10.1102295 0l0 42.960632l-10.1102295 0z" fill-rule="evenodd"/><path stroke="#6db33f" stroke-width="1.0" stroke-linejoin="round" stroke-linecap="butt" d="m213.00525 36.377953l10.1102295 0l0 42.960632l-10.1102295 0z" fill-rule="evenodd"/><path fill="#eedf7b" d="m213.00525 126.6273l10.1102295 0l0 42.960625l-10.1102295 0z" fill-rule="evenodd"/><path stroke="#eedf7b" stroke-width="1.0" stroke-linejoin="round" stroke-linecap="butt" d="m213.00525 126.6273l10.1102295 0l0 42.960625l-10.1102295 0z" fill-rule="evenodd"/><path fill="#dc524a" d="m213.00525 171.75328l10.1102295 0l0 42.960632l-10.1102295 0z" fill-rule="evenodd"/><path stroke="#dc524a" stroke-width="1.0" stroke-linejoin="round" stroke-linecap="butt" d="m213.00525 171.75328l10.1102295 0l0 42.960632l-10.1102295 0z" fill-rule="evenodd"/><path fill="#eac950" d="m213.00525 216.87927l10.1102295 0l0 42.960632l-10.1102295 0z" fill-rule="evenodd"/><path stroke="#eac950" stroke-width="1.0" stroke-linejoin="round" stroke-linecap="butt" d="m213.00525 216.87927l10.1102295 0l0 42.960632l-10.1102295 0z" fill-rule="evenodd"/><path fill="#b4b4b4" d="m213.00525 262.00525l10.1102295 0l0 42.960632l-10.1102295 0z" fill-rule="evenodd"/><path stroke="#b4b4b4" stroke-width="1.0" stroke-linejoin="round" stroke-linecap="butt" d="m213.00525 262.00525l10.1102295 0l0 42.960632l-10.1102295 0z" fill-rule="evenodd"/><path fill="#82b4d0" d="m213.00525 361.37796l10.1102295 0l0 42.960632l-10.1102295 0z" fill-rule="evenodd"/><path stroke="#82b4d0" stroke-width="1.0" stroke-linejoin="round" stroke-linecap="butt" d="m213.00525 361.37796l10.1102295 0l0 42.960632l-10.1102295 0z" fill-rule="evenodd"/><path fill="#3c7da0" d="m292.8609 36.377953l10.1102295 0l0 88.50394l-10.1102295 0z" fill-rule="evenodd"/><path stroke="#3c7da0" stroke-width="1.0" stroke-linejoin="round" stroke-linecap="butt" d="m292.8609 36.377953l10.1102295 0l0 88.50394l-10.1102295 0z" fill-rule="evenodd"/><path fill="#000000" fill-opacity="0.0" d="m141.25197 444.94226l144.00002 0l0 30.992126l-144.00002 0z" fill-rule="evenodd"/><path fill="#000000" d="m153.29884 460.8335l-0.203125 1.078125q1.140625 -1.25 2.59375 -1.21875q1.203125 0.03125 1.765625 0.828125q0.578125 0.796875 0.421875 2.234375l-0.921875 5.546875l-1.40625 0l0.921875 -5.5625q0.046875 -0.390625 0.015625 -0.71875q-0.140625 -1.09375 -1.296875 -1.109375q-1.265625 -0.03125 -2.234375 1.359375l-1.046875 6.03125l-1.40625 0l1.46875 -8.453125l1.328125 -0.015625zm9.5 8.625q-1.578125 -0.03125 -2.46875 -1.15625q-0.890625 -1.140625 -0.75 -2.90625l0.03125 -0.34375q0.140625 -1.25 0.75 -2.28125q0.609375 -1.046875 1.484375 -1.578125q0.890625 -0.53125 1.921875 -0.5q1.296875 0.03125 2.03125 0.875q0.75 0.828125 0.828125 2.25q0.015625 0.515625 -0.03125 1.015625l-0.09375 0.65625l-5.515625 0q-0.140625 1.140625 0.375 1.953125q0.515625 0.796875 1.546875 0.828125q1.25 0.03125 2.3125 -1.125l0.8125 0.6875q-0.53125 0.765625 -1.375 1.203125q-0.828125 0.4375 -1.859375 0.421875zm0.890625 -7.59375q-0.875 -0.015625 -1.53125 0.609375q-0.640625 0.609375 -1.03125 1.828125l4.109375 0l0.03125 -0.125q0.125 -0.984375 -0.3125 -1.625q-0.4375 -0.65625 -1.265625 -0.6875zm7.375 2.0625l2.296875 -3.078125l1.734375 0l-3.390625 4.25l2.0625 4.203125l-1.53125 0l-1.40625 -3.15625l-2.375 3.15625l-1.734375 0l3.5 -4.34375l-2.0 -4.109375l1.546875 0l1.296875 3.078125zm7.8828125 -5.125l-0.359375 2.046875l1.53125 0l-0.1875 1.109375l-1.53125 0l-0.890625 5.265625q-0.015625 0.203125 0 0.375q0.046875 0.609375 0.65625 0.609375q0.265625 0 0.6875 -0.078125l-0.109375 1.1875q-0.5 0.140625 -1.03125 0.140625q-0.84375 -0.015625 -1.265625 -0.625q-0.421875 -0.609375 -0.328125 -1.640625l0.859375 -5.234375l-1.484375 0l0.1875 -1.109375l1.5 0l0.359375 -2.046875l1.40625 0zm9.0703125 0l-0.359375 2.046875l1.53125 0l-0.1875 1.109375l-1.53125 0l-0.890625 5.265625q-0.015625 0.203125 0 0.375q0.046875 0.609375 0.65625 0.609375q0.265625 0 0.6875 -0.078125l-0.109375 1.1875q-0.5 0.140625 -1.03125 0.140625q-0.84375 -0.015625 -1.265625 -0.625q-0.421875 -0.609375 -0.328125 -1.640625l0.859375 -5.234375l-1.484375 0l0.1875 -1.109375l1.5 0l0.359375 -2.046875l1.40625 0zm5.0703125 10.65625q-1.578125 -0.03125 -2.46875 -1.15625q-0.890625 -1.140625 -0.75 -2.90625l0.03125 -0.34375q0.140625 -1.25 0.75 -2.28125q0.609375 -1.046875 1.484375 -1.578125q0.890625 -0.53125 1.921875 -0.5q1.296875 0.03125 2.03125 0.875q0.75 0.828125 0.828125 2.25q0.015625 0.515625 -0.03125 1.015625l-0.09375 0.65625l-5.515625 0q-0.140625 1.140625 0.375 1.953125q0.515625 0.796875 1.546875 0.828125q1.25 0.03125 2.3125 -1.125l0.8125 0.6875q-0.53125 0.765625 -1.375 1.203125q-0.828125 0.4375 -1.859375 0.421875zm0.890625 -7.59375q-0.875 -0.015625 -1.53125 0.609375q-0.640625 0.609375 -1.03125 1.828125l4.109375 0l0.03125 -0.125q0.125 -0.984375 -0.3125 -1.625q-0.4375 -0.65625 -1.265625 -0.6875zm8.984375 5.140625q0.109375 -0.875 -0.96875 -1.234375l-1.46875 -0.421875q-1.859375 -0.640625 -1.796875 -2.125q0.0625 -1.125 1.015625 -1.828125q0.96875 -0.71875 2.28125 -0.703125q1.28125 0.015625 2.078125 0.75q0.796875 0.71875 0.765625 1.890625l-1.40625 0q0.015625 -0.640625 -0.40625 -1.03125q-0.40625 -0.40625 -1.09375 -0.421875q-0.734375 -0.015625 -1.265625 0.359375q-0.484375 0.359375 -0.5625 0.921875q-0.109375 0.734375 0.890625 1.078125l0.71875 0.1875q1.453125 0.375 2.0625 0.984375q0.609375 0.59375 0.5625 1.484375q-0.046875 0.796875 -0.515625 1.390625q-0.46875 0.578125 -1.25 0.890625q-0.78125 0.3125 -1.671875 0.28125q-1.34375 -0.015625 -2.21875 -0.78125q-0.875 -0.78125 -0.84375 -1.984375l1.421875 0q0 0.71875 0.453125 1.15625q0.453125 0.421875 1.234375 0.421875q0.78125 0.015625 1.34375 -0.328125q0.5625 -0.34375 0.640625 -0.9375zm6.578125 -8.203125l-0.359375 2.046875l1.53125 0l-0.1875 1.109375l-1.53125 0l-0.890625 5.265625q-0.015625 0.203125 0 0.375q0.046875 0.609375 0.65625 0.609375q0.265625 0 0.6875 -0.078125l-0.109375 1.1875q-0.5 0.140625 -1.03125 0.140625q-0.84375 -0.015625 -1.265625 -0.625q-0.421875 -0.609375 -0.328125 -1.640625l0.859375 -5.234375l-1.484375 0l0.1875 -1.109375l1.5 0l0.359375 -2.046875l1.40625 0zm8.8984375 9.484375q0.765625 0.015625 1.375 -0.4375q0.609375 -0.46875 0.796875 -1.203125l1.328125 -0.015625q-0.109375 0.796875 -0.640625 1.453125q-0.515625 0.65625 -1.3125 1.03125q-0.78125 0.375 -1.609375 0.34375q-1.046875 -0.015625 -1.78125 -0.546875q-0.734375 -0.546875 -1.078125 -1.5q-0.34375 -0.953125 -0.234375 -2.15625l0.046875 -0.390625q0.140625 -1.21875 0.703125 -2.171875q0.5625 -0.96875 1.46875 -1.5q0.90625 -0.53125 2.0 -0.5q1.328125 0.03125 2.125 0.890625q0.796875 0.859375 0.796875 2.171875l-1.3125 0q-0.015625 -0.828125 -0.46875 -1.34375q-0.4375 -0.515625 -1.203125 -0.546875q-1.09375 -0.015625 -1.828125 0.828125q-0.734375 0.84375 -0.90625 2.359375l-0.03125 0.203125q-0.046875 0.5 -0.015625 1.03125q0.0625 0.90625 0.515625 1.4375q0.46875 0.53125 1.265625 0.5625zm6.171875 1.015625l-1.40625 0l2.078125 -12.0l1.40625 0l-2.078125 12.0zm7.484375 0q-0.0625 -0.234375 -0.0625 -0.453125l0.03125 -0.4375q-1.171875 1.078125 -2.46875 1.046875q-1.125 -0.015625 -1.828125 -0.703125q-0.6875 -0.703125 -0.625 -1.734375q0.078125 -1.34375 1.171875 -2.09375q1.09375 -0.765625 2.890625 -0.765625l1.46875 0.015625l0.09375 -0.671875q0.078125 -0.765625 -0.296875 -1.203125q-0.359375 -0.4375 -1.109375 -0.453125q-0.71875 -0.015625 -1.28125 0.359375q-0.5625 0.359375 -0.6875 0.96875l-1.421875 0.015625q0.078125 -0.75 0.578125 -1.3125q0.515625 -0.578125 1.3125 -0.890625q0.796875 -0.328125 1.640625 -0.3125q1.328125 0.03125 2.0625 0.8125q0.734375 0.765625 0.609375 2.03125l-0.6875 4.1875l-0.03125 0.609375q-0.015625 0.421875 0.09375 0.84375l-0.015625 0.140625l-1.4375 0zm-2.21875 -1.09375q0.671875 0.015625 1.28125 -0.328125q0.609375 -0.34375 1.046875 -0.9375l0.296875 -1.75l-1.0625 0q-1.34375 0 -2.0625 0.421875q-0.703125 0.421875 -0.796875 1.1875q-0.0625 0.59375 0.28125 1.0q0.34375 0.390625 1.015625 0.40625zm10.8046875 -1.203125q0.109375 -0.875 -0.96875 -1.234375l-1.46875 -0.421875q-1.859375 -0.640625 -1.796875 -2.125q0.0625 -1.125 1.015625 -1.828125q0.96875 -0.71875 2.28125 -0.703125q1.28125 0.015625 2.078125 0.75q0.796875 0.71875 0.765625 1.890625l-1.40625 0q0.015625 -0.640625 -0.40625 -1.03125q-0.40625 -0.40625 -1.09375 -0.421875q-0.734375 -0.015625 -1.265625 0.359375q-0.484375 0.359375 -0.5625 0.921875q-0.109375 0.734375 0.890625 1.078125l0.71875 0.1875q1.453125 0.375 2.0625 0.984375q0.609375 0.59375 0.5625 1.484375q-0.046875 0.796875 -0.515625 1.390625q-0.46875 0.578125 -1.25 0.890625q-0.78125 0.3125 -1.671875 0.28125q-1.34375 -0.015625 -2.21875 -0.78125q-0.875 -0.78125 -0.84375 -1.984375l1.421875 0q0 0.71875 0.453125 1.15625q0.453125 0.421875 1.234375 0.421875q0.78125 0.015625 1.34375 -0.328125q0.5625 -0.34375 0.640625 -0.9375zm8.078125 0q0.109375 -0.875 -0.96875 -1.234375l-1.46875 -0.421875q-1.859375 -0.640625 -1.796875 -2.125q0.0625 -1.125 1.015625 -1.828125q0.96875 -0.71875 2.28125 -0.703125q1.28125 0.015625 2.078125 0.75q0.796875 0.71875 0.765625 1.890625l-1.40625 0q0.015625 -0.640625 -0.40625 -1.03125q-0.40625 -0.40625 -1.09375 -0.421875q-0.734375 -0.015625 -1.265625 0.359375q-0.484375 0.359375 -0.5625 0.921875q-0.109375 0.734375 0.890625 1.078125l0.71875 0.1875q1.453125 0.375 2.0625 0.984375q0.609375 0.59375 0.5625 1.484375q-0.046875 0.796875 -0.515625 1.390625q-0.46875 0.578125 -1.25 0.890625q-0.78125 0.3125 -1.671875 0.28125q-1.34375 -0.015625 -2.21875 -0.78125q-0.875 -0.78125 -0.84375 -1.984375l1.421875 0q0 0.71875 0.453125 1.15625q0.453125 0.421875 1.234375 0.421875q0.78125 0.015625 1.34375 -0.328125q0.5625 -0.34375 0.640625 -0.9375z" fill-rule="nonzero"/><path fill="#000000" fill-opacity="0.0" d="m201.32545 311.74933l160.03151 0l0 25.196869l-160.03151 0z" fill-rule="evenodd"/><path fill="#000000" d="m213.3567 327.6406l-0.171875 0.953125q1.0625 -1.125 2.5625 -1.09375q0.8125 0.015625 1.359375 0.375q0.5625 0.34375 0.78125 0.984375q1.1875 -1.390625 2.796875 -1.359375q1.265625 0.03125 1.859375 0.859375q0.609375 0.8125 0.453125 2.1875l-0.921875 5.5625l-1.40625 0l0.921875 -5.578125q0.046875 -0.40625 0 -0.734375q-0.15625 -1.0625 -1.390625 -1.09375q-0.78125 -0.015625 -1.40625 0.484375q-0.625 0.5 -0.8125 1.296875l-0.953125 5.625l-1.421875 0l0.9375 -5.5625q0.09375 -0.875 -0.265625 -1.34375q-0.359375 -0.46875 -1.125 -0.484375q-1.328125 -0.03125 -2.109375 1.203125l-1.0625 6.1875l-1.421875 0l1.46875 -8.453125l1.328125 -0.015625zm15.5859375 -0.140625q1.0625 0.015625 1.8125 0.578125q0.765625 0.5625 1.125 1.546875q0.375 0.984375 0.25 2.15625l-0.015625 0.171875q-0.140625 1.234375 -0.734375 2.234375q-0.578125 1.0 -1.515625 1.5625q-0.921875 0.546875 -2.03125 0.515625q-1.0625 -0.015625 -1.828125 -0.578125q-0.75 -0.5625 -1.109375 -1.53125q-0.34375 -0.96875 -0.25 -2.140625q0.125 -1.3125 0.71875 -2.359375q0.59375 -1.046875 1.515625 -1.609375q0.9375 -0.578125 2.0625 -0.546875zm-2.875 4.53125q-0.046875 0.484375 0 1.015625q0.078125 0.921875 0.546875 1.46875q0.484375 0.546875 1.265625 0.578125q0.703125 0.015625 1.296875 -0.34375q0.59375 -0.375 1.0 -1.125q0.40625 -0.75 0.53125 -1.671875q0.0625 -0.71875 0.015625 -1.203125q-0.09375 -0.953125 -0.578125 -1.5q-0.46875 -0.546875 -1.25 -0.578125q-1.09375 -0.015625 -1.859375 0.875q-0.765625 0.875 -0.953125 2.296875l-0.015625 0.1875zm12.3671875 -3.09375l-0.65625 -0.0625q-1.359375 0 -2.140625 1.21875l-1.046875 6.015625l-1.40625 0l1.46875 -8.453125l1.359375 -0.015625l-0.203125 0.984375q0.890625 -1.171875 2.109375 -1.140625q0.265625 0 0.671875 0.109375l-0.15625 1.34375zm3.734375 7.328125q-1.578125 -0.03125 -2.46875 -1.15625q-0.890625 -1.140625 -0.75 -2.90625l0.03125 -0.34375q0.140625 -1.25 0.75 -2.28125q0.609375 -1.046875 1.484375 -1.578125q0.890625 -0.53125 1.921875 -0.5q1.296875 0.03125 2.03125 0.875q0.75 0.828125 0.828125 2.25q0.015625 0.515625 -0.03125 1.015625l-0.09375 0.65625l-5.515625 0q-0.140625 1.140625 0.375 1.953125q0.515625 0.796875 1.546875 0.828125q1.25 0.03125 2.3125 -1.125l0.8125 0.6875q-0.53125 0.765625 -1.375 1.203125q-0.828125 0.4375 -1.859375 0.421875zm0.890625 -7.59375q-0.875 -0.015625 -1.53125 0.609375q-0.640625 0.609375 -1.03125 1.828125l4.109375 0l0.03125 -0.125q0.125 -0.984375 -0.3125 -1.625q-0.4375 -0.65625 -1.265625 -0.6875zm11.40625 -3.0625l-0.359375 2.046875l1.53125 0l-0.1875 1.109375l-1.53125 0l-0.890625 5.265625q-0.015625 0.203125 0 0.375q0.046875 0.609375 0.65625 0.609375q0.265625 0 0.6875 -0.078125l-0.109375 1.1875q-0.5 0.140625 -1.03125 0.140625q-0.84375 -0.015625 -1.265625 -0.625q-0.421875 -0.609375 -0.328125 -1.640625l0.859375 -5.234375l-1.484375 0l0.1875 -1.109375l1.5 0l0.359375 -2.046875l1.40625 0zm5.0703278 10.65625q-1.578125 -0.03125 -2.46875 -1.15625q-0.890625 -1.140625 -0.75 -2.90625l0.03125 -0.34375q0.140625 -1.25 0.75 -2.28125q0.609375 -1.046875 1.484375 -1.578125q0.890625 -0.53125 1.921875 -0.5q1.296875 0.03125 2.03125 0.875q0.75 0.828125 0.828125 2.25q0.015625 0.515625 -0.03125 1.015625l-0.09375 0.65625l-5.515625 0q-0.140625 1.140625 0.375 1.953125q0.515625 0.796875 1.546875 0.828125q1.25 0.03125 2.3125 -1.125l0.8125 0.6875q-0.53125 0.765625 -1.375 1.203125q-0.828125 0.4375 -1.859375 0.421875zm0.890625 -7.59375q-0.875 -0.015625 -1.53125 0.609375q-0.640625 0.609375 -1.03125 1.828125l4.109375 0l0.03125 -0.125q0.125 -0.984375 -0.3125 -1.625q-0.4375 -0.65625 -1.265625 -0.6875zm8.984375 5.140625q0.109375 -0.875 -0.96875 -1.234375l-1.46875 -0.421875q-1.859375 -0.640625 -1.796875 -2.125q0.0625 -1.125 1.015625 -1.828125q0.96875 -0.71875 2.28125 -0.703125q1.28125 0.015625 2.078125 0.75q0.796875 0.71875 0.765625 1.890625l-1.40625 0q0.015625 -0.640625 -0.40625 -1.03125q-0.40625 -0.40625 -1.09375 -0.421875q-0.734375 -0.015625 -1.265625 0.359375q-0.484375 0.359375 -0.5625 0.921875q-0.109375 0.734375 0.890625 1.078125l0.71875 0.1875q1.453125 0.375 2.0625 0.984375q0.609375 0.59375 0.5625 1.484375q-0.046875 0.796875 -0.515625 1.390625q-0.46875 0.578125 -1.25 0.890625q-0.78125 0.3125 -1.671875 0.28125q-1.34375 -0.015625 -2.21875 -0.78125q-0.875 -0.78125 -0.84375 -1.984375l1.421875 0q0 0.71875 0.453125 1.15625q0.453125 0.421875 1.234375 0.421875q0.78125 0.015625 1.34375 -0.328125q0.5625 -0.34375 0.640625 -0.9375zm6.578125 -8.203125l-0.359375 2.046875l1.53125 0l-0.1875 1.109375l-1.53125 0l-0.890625 5.265625q-0.015625 0.203125 0 0.375q0.046875 0.609375 0.65625 0.609375q0.265625 0 0.6875 -0.078125l-0.109375 1.1875q-0.5 0.140625 -1.03125 0.140625q-0.84375 -0.015625 -1.265625 -0.625q-0.421875 -0.609375 -0.328125 -1.640625l0.859375 -5.234375l-1.484375 0l0.1875 -1.109375l1.5 0l0.359375 -2.046875l1.40625 0zm8.1171875 2.03125l-0.171875 0.953125q1.0625 -1.125 2.5625 -1.09375q0.8125 0.015625 1.359375 0.375q0.5625 0.34375 0.78125 0.984375q1.1875 -1.390625 2.796875 -1.359375q1.265625 0.03125 1.859375 0.859375q0.609375 0.8125 0.453125 2.1875l-0.921875 5.5625l-1.40625 0l0.921875 -5.578125q0.046875 -0.40625 0 -0.734375q-0.15625 -1.0625 -1.390625 -1.09375q-0.78125 -0.015625 -1.40625 0.484375q-0.625 0.5 -0.8125 1.296875l-0.953125 5.625l-1.421875 0l0.9375 -5.5625q0.09375 -0.875 -0.265625 -1.34375q-0.359375 -0.46875 -1.125 -0.484375q-1.328125 -0.03125 -2.109375 1.203125l-1.0625 6.1875l-1.421875 0l1.46875 -8.453125l1.328125 -0.015625zm14.5546875 8.625q-1.578125 -0.03125 -2.46875 -1.15625q-0.890625 -1.140625 -0.75 -2.90625l0.03125 -0.34375q0.140625 -1.25 0.75 -2.28125q0.609375 -1.046875 1.484375 -1.578125q0.890625 -0.53125 1.921875 -0.5q1.296875 0.03125 2.03125 0.875q0.75 0.828125 0.828125 2.25q0.015625 0.515625 -0.03125 1.015625l-0.09375 0.65625l-5.515625 0q-0.140625 1.140625 0.375 1.953125q0.515625 0.796875 1.546875 0.828125q1.25 0.03125 2.3125 -1.125l0.8125 0.6875q-0.53125 0.765625 -1.375 1.203125q-0.828125 0.4375 -1.859375 0.421875zm0.890625 -7.59375q-0.875 -0.015625 -1.53125 0.609375q-0.640625 0.609375 -1.03125 1.828125l4.109375 0l0.03125 -0.125q0.125 -0.984375 -0.3125 -1.625q-0.4375 -0.65625 -1.265625 -0.6875zm7.484375 -3.0625l-0.359375 2.046875l1.53125 0l-0.1875 1.109375l-1.53125 0l-0.890625 5.265625q-0.015625 0.203125 0 0.375q0.046875 0.609375 0.65625 0.609375q0.265625 0 0.6875 -0.078125l-0.109375 1.1875q-0.5 0.140625 -1.03125 0.140625q-0.84375 -0.015625 -1.265625 -0.625q-0.421875 -0.609375 -0.328125 -1.640625l0.859375 -5.234375l-1.484375 0l0.1875 -1.109375l1.5 0l0.359375 -2.046875l1.40625 0zm4.0546875 3.078125q1.109375 -1.21875 2.546875 -1.1875q1.1875 0.015625 1.765625 0.828125q0.578125 0.796875 0.421875 2.234375l-0.921875 5.546875l-1.40625 0l0.921875 -5.5625q0.046875 -0.390625 0.015625 -0.71875q-0.140625 -1.09375 -1.296875 -1.109375q-1.296875 -0.03125 -2.234375 1.359375l-1.046875 6.03125l-1.40625 0l2.078125 -12.0l1.421875 0l-0.859375 4.578125zm10.671875 -1.1875q1.0625 0.015625 1.8125 0.578125q0.765625 0.5625 1.125 1.546875q0.375 0.984375 0.25 2.15625l-0.015625 0.171875q-0.140625 1.234375 -0.734375 2.234375q-0.578125 1.0 -1.515625 1.5625q-0.921875 0.546875 -2.03125 0.515625q-1.0625 -0.015625 -1.828125 -0.578125q-0.75 -0.5625 -1.109375 -1.53125q-0.34375 -0.96875 -0.25 -2.140625q0.125 -1.3125 0.71875 -2.359375q0.59375 -1.046875 1.515625 -1.609375q0.9375 -0.578125 2.0625 -0.546875zm-2.875 4.53125q-0.046875 0.484375 0 1.015625q0.078125 0.921875 0.546875 1.46875q0.484375 0.546875 1.265625 0.578125q0.703125 0.015625 1.296875 -0.34375q0.59375 -0.375 1.0 -1.125q0.40625 -0.75 0.53125 -1.671875q0.0625 -0.71875 0.015625 -1.203125q-0.09375 -0.953125 -0.578125 -1.5q-0.46875 -0.546875 -1.25 -0.578125q-1.09375 -0.015625 -1.859375 0.875q-0.765625 0.875 -0.953125 2.296875l-0.015625 0.1875zm7.5234375 -0.171875q0.15625 -1.28125 0.703125 -2.3125q0.5625 -1.046875 1.375 -1.5625q0.8125 -0.515625 1.78125 -0.5q1.421875 0.03125 2.171875 1.03125l0.8125 -4.40625l1.421875 0l-2.078125 12.0l-1.296875 0l0.15625 -0.90625q-1.0 1.09375 -2.46875 1.0625q-1.171875 -0.03125 -1.875 -0.921875q-0.6875 -0.890625 -0.75 -2.375q-0.015625 -0.46875 0.046875 -1.109375zm1.359375 0.8125q-0.03125 1.125 0.390625 1.75q0.421875 0.609375 1.234375 0.625q1.234375 0.046875 2.1875 -1.234375l0.671875 -3.90625q-0.46875 -1.15625 -1.703125 -1.1875q-0.84375 -0.03125 -1.484375 0.5q-0.625 0.53125 -0.96875 1.484375q-0.328125 0.9375 -0.328125 1.96875zm12.296875 1.140625q0.109375 -0.875 -0.96875 -1.234375l-1.46875 -0.421875q-1.859375 -0.640625 -1.796875 -2.125q0.0625 -1.125 1.015625 -1.828125q0.96875 -0.71875 2.28125 -0.703125q1.28125 0.015625 2.078125 0.75q0.796875 0.71875 0.765625 1.890625l-1.40625 0q0.015625 -0.640625 -0.40625 -1.03125q-0.40625 -0.40625 -1.09375 -0.421875q-0.734375 -0.015625 -1.265625 0.359375q-0.484375 0.359375 -0.5625 0.921875q-0.109375 0.734375 0.890625 1.078125l0.71875 0.1875q1.453125 0.375 2.0625 0.984375q0.609375 0.59375 0.5625 1.484375q-0.046875 0.796875 -0.515625 1.390625q-0.46875 0.578125 -1.25 0.890625q-0.78125 0.3125 -1.671875 0.28125q-1.34375 -0.015625 -2.21875 -0.78125q-0.875 -0.78125 -0.84375 -1.984375l1.421875 0q0 0.71875 0.453125 1.15625q0.453125 0.421875 1.234375 0.421875q0.78125 0.015625 1.34375 -0.328125q0.5625 -0.34375 0.640625 -0.9375z" fill-rule="nonzero"/></g></svg>